<?xml version="1.0" standalone="no"?>
<!DOCTYPE svg PUBLIC "-//W3C//DTD SVG 20010904//EN"
 "http://www.w3.org/TR/2001/REC-SVG-20010904/DTD/svg10.dtd">
<svg version="1.0" xmlns="http://www.w3.org/2000/svg"
 width="1024.000000pt" height="1024.000000pt" viewBox="0 0 1024.000000 1024.000000"
 preserveAspectRatio="xMidYMid meet">

<g transform="translate(0.000000,1024.000000) scale(0.100000,-0.100000)"
fill="#000000" stroke="none">
<path d="M698 9605 c-183 -37 -244 -111 -204 -247 33 -115 157 -340 217 -397
21 -20 57 -72 80 -116 118 -225 220 -375 255 -375 8 0 14 -10 14 -22 1 -13 12
-41 25 -63 13 -22 37 -65 53 -95 51 -97 123 -202 143 -207 12 -3 19 -14 19
-29 0 -69 173 -275 305 -363 78 -52 120 -73 203 -102 109 -38 188 -49 457 -64
247 -14 456 -39 545 -65 145 -43 466 -88 647 -91 l92 -1 6 -32 c4 -17 9 -39
12 -50 5 -18 -3 -18 -213 -10 -301 12 -640 7 -819 -11 -82 -9 -157 -18 -165
-20 -8 -3 -48 -9 -88 -15 -182 -25 -408 -125 -459 -201 -24 -36 -25 -41 -13
-90 18 -74 141 -197 258 -257 45 -24 82 -48 82 -55 0 -30 181 -163 236 -173
19 -3 39 -15 45 -25 46 -87 334 -135 559 -94 87 15 102 9 77 -34 -14 -24 -17
-55 -17 -163 0 -193 -28 -407 -51 -392 -4 2 -6 11 -2 19 7 19 -11 19 -26 1 -9
-11 -9 -20 -2 -35 6 -11 11 -55 11 -99 0 -43 7 -103 16 -133 12 -41 15 -74 9
-139 -12 -152 -31 -264 -54 -315 -64 -141 -102 -302 -104 -436 0 -58 4 -85 21
-120 12 -25 22 -50 22 -56 0 -5 9 -18 19 -27 16 -15 18 -27 14 -79 -3 -34 -11
-86 -19 -116 -9 -29 -13 -60 -10 -68 4 -8 -3 -22 -16 -32 -17 -15 -21 -27 -19
-69 0 -27 8 -67 17 -88 9 -21 18 -72 21 -113 6 -74 25 -120 49 -121 6 0 14
-14 18 -30 3 -17 27 -53 53 -82 178 -190 194 -203 221 -176 8 8 15 8 26 -2 40
-32 63 26 26 65 l-20 22 22 -1 c37 -2 36 39 -1 58 -17 9 -42 36 -56 60 -14 24
-32 47 -40 50 -9 3 -15 19 -15 38 0 51 -18 101 -43 120 -19 15 -20 20 -10 37
9 14 10 34 4 66 -5 27 -5 48 1 51 5 3 8 22 7 43 -2 29 6 50 42 101 24 36 47
67 52 68 4 2 14 10 21 18 13 12 19 9 45 -23 17 -21 31 -47 31 -59 0 -11 8 -28
18 -38 11 -9 25 -35 32 -59 22 -75 33 -99 58 -128 28 -34 66 -38 82 -10 15 29
12 129 -5 181 -8 25 -17 62 -20 83 -4 24 -19 53 -41 77 -27 29 -33 44 -29 63
5 19 0 30 -26 51 -30 25 -58 81 -59 118 0 9 -15 29 -32 44 -18 15 -39 40 -45
57 -16 37 -16 37 1 37 8 0 23 16 34 35 27 44 33 202 10 237 -12 18 -12 26 -2
47 7 14 20 51 28 81 57 210 69 240 92 240 10 0 14 6 10 15 -9 25 33 98 75 128
22 16 47 43 55 60 9 18 39 63 66 101 42 58 49 72 40 91 -8 17 -3 37 29 101 44
89 49 123 19 131 -29 8 -22 33 12 46 10 3 18 19 20 39 2 27 8 34 30 36 14 2
33 13 41 26 22 32 37 95 26 102 -5 3 -7 10 -3 15 3 5 10 7 15 3 6 -3 26 11 45
32 31 32 35 42 29 70 -4 26 -1 41 16 63 16 22 19 33 11 47 -9 15 -1 37 38 109
64 119 130 270 130 298 0 14 17 39 40 63 95 92 112 112 136 162 13 28 28 52
32 52 4 0 7 -17 7 -38 0 -21 13 -68 28 -103 l28 -65 -42 -75 c-239 -428 -354
-778 -309 -940 6 -20 19 -44 30 -54 19 -17 19 -18 -14 -59 -42 -52 -116 -167
-116 -180 0 -6 -14 -29 -30 -50 -17 -22 -30 -49 -30 -60 0 -12 -11 -73 -24
-136 -79 -374 -82 -712 -12 -1175 9 -60 21 -132 26 -158 6 -27 10 -66 10 -88
0 -21 5 -39 10 -39 6 0 12 0 15 0 3 0 13 -8 23 -17 9 -10 29 -26 42 -35 19
-13 21 -17 8 -17 -9 -1 -30 11 -47 25 -36 30 -83 40 -99 21 -6 -7 -21 -68 -33
-136 -21 -112 -22 -131 -11 -219 13 -101 58 -247 99 -321 17 -31 20 -42 9 -38
-10 4 -13 1 -9 -9 3 -7 10 -14 15 -14 5 0 21 -9 35 -20 19 -15 21 -20 9 -20
-9 0 -16 5 -16 10 0 6 -4 10 -10 10 -13 0 -13 -33 0 -46 6 -6 13 -46 15 -90 3
-43 10 -107 16 -142 6 -35 9 -83 6 -107 -2 -25 -1 -42 4 -39 5 3 9 -10 9 -28
0 -22 -3 -29 -9 -20 -5 8 -11 -63 -14 -170 -6 -222 -39 -451 -88 -619 -10 -37
-18 -77 -17 -90 2 -15 -2 -23 -9 -22 -28 6 -173 -302 -173 -368 0 -20 -11 -56
-25 -81 -13 -24 -30 -76 -37 -116 -11 -63 -10 -74 4 -88 14 -14 19 -11 53 30
33 40 75 62 75 38 0 -4 -22 -49 -49 -100 -46 -87 -64 -112 -139 -201 -23 -28
-29 -41 -20 -45 7 -3 3 -3 -9 0 -30 7 -84 -22 -77 -41 4 -8 1 -15 -6 -15 -6 0
-8 5 -5 10 9 14 -7 12 -29 -5 -17 -13 -17 -15 -3 -21 33 -12 16 -19 -38 -16
-48 3 -61 0 -91 -23 -33 -25 -74 -98 -74 -131 0 -8 15 -21 33 -29 l32 -14 -37
-1 c-21 0 -38 -4 -38 -9 0 -17 188 -23 382 -13 193 11 251 21 346 63 23 10 48
19 56 19 7 0 23 8 34 19 15 12 44 20 92 24 39 3 85 10 103 16 17 6 46 14 62
18 l30 7 -29 4 -28 4 37 34 c37 33 37 36 30 82 -4 26 -8 61 -9 77 -1 25 -6 31
-28 33 -20 2 -28 -1 -28 -12 0 -9 -4 -16 -8 -16 -17 0 -30 48 -25 87 5 36 9
41 42 49 32 8 38 15 55 64 38 111 18 302 -29 283 -14 -5 -15 14 -10 158 12
334 48 511 145 714 21 44 43 100 50 125 7 25 21 63 31 86 11 22 19 53 19 68 0
15 4 25 10 21 6 -4 10 9 11 32 0 21 4 47 9 58 8 20 9 19 9 -1 1 -12 7 -26 14
-32 17 -15 80 110 97 193 20 95 19 211 -3 232 -15 16 -17 16 -17 1 0 -9 -5
-20 -11 -24 -12 -7 -2 57 10 66 11 8 38 120 62 260 20 111 21 129 8 155 -19
39 -58 51 -116 34 -56 -15 -100 -59 -139 -138 -16 -33 -32 -60 -36 -60 -11 -1
-10 27 1 34 13 7 25 88 17 113 -8 25 -34 36 -52 21 -11 -9 -14 -6 -14 19 0 21
-9 38 -30 56 -29 24 -29 26 -11 36 11 5 30 10 42 10 16 0 20 4 16 20 -4 15 -1
20 11 18 25 -5 39 38 52 157 8 80 20 134 44 195 67 174 72 215 32 255 -33 33
-42 63 -22 71 9 3 16 16 16 28 0 12 5 27 11 33 6 6 12 28 14 48 2 21 7 41 12
44 8 6 12 16 21 61 3 14 13 36 23 50 12 17 23 66 34 147 21 169 20 233 -7 289
-21 45 -21 47 -4 100 18 57 40 70 66 39 7 -8 29 -15 50 -15 30 0 39 5 48 25 7
14 12 31 12 36 0 6 7 17 15 25 8 9 15 33 15 54 0 41 15 59 32 42 8 -8 5 -27
-7 -64 -38 -115 -24 -341 31 -506 13 -40 24 -78 24 -86 0 -7 11 -34 24 -60 13
-27 27 -59 30 -72 4 -15 14 -24 26 -24 11 0 20 -6 20 -12 0 -7 3 -24 7 -37 4
-17 3 -22 -6 -17 -17 11 10 -44 37 -73 19 -21 26 -35 20 -43 -1 -2 5 -14 12
-28 8 -14 14 -29 15 -34 0 -13 53 -43 90 -51 24 -5 27 -4 15 5 -13 10 -12 11
3 6 10 -3 20 -6 23 -6 2 0 1 -6 -2 -14 -7 -18 15 -31 29 -17 8 8 8 11 -1 11
-7 0 -12 5 -12 10 0 6 15 10 33 8 45 -3 88 42 127 134 17 40 35 77 41 83 5 5
9 19 9 32 0 13 9 28 20 35 11 7 20 21 20 30 0 10 4 18 9 18 11 0 61 83 61 102
0 7 -9 -2 -21 -21 -11 -18 -23 -30 -27 -27 -3 4 -1 10 5 14 6 4 21 27 33 52
12 25 26 53 31 63 17 32 50 192 60 287 9 93 1 180 -22 222 -12 23 -12 91 0 84
5 -3 12 -18 16 -33 3 -14 20 -55 36 -90 29 -63 29 -63 72 -63 23 0 52 7 64 15
20 14 23 14 34 -7 28 -52 28 -87 2 -144 -23 -51 -25 -63 -18 -147 10 -149 27
-250 46 -287 11 -19 19 -39 19 -45 0 -5 21 -66 45 -134 l45 -124 -24 -24 c-46
-46 -42 -112 16 -243 33 -74 47 -134 58 -246 8 -89 11 -98 42 -130 24 -25 39
-33 54 -29 13 3 27 -2 35 -11 10 -13 9 -16 -8 -20 -19 -5 -36 -29 -46 -64 -2
-8 -14 -15 -28 -15 -23 0 -24 -4 -27 -68 -2 -43 2 -74 9 -83 6 -8 9 -17 6 -20
-3 -3 -18 14 -32 38 -76 123 -106 150 -175 162 -49 9 -82 -11 -92 -54 -9 -42
13 -221 41 -337 19 -76 19 -84 4 -113 -20 -41 -11 -181 17 -273 26 -80 71
-162 90 -162 26 -1 37 -13 38 -43 0 -15 10 -52 22 -82 12 -30 34 -86 50 -125
15 -38 39 -95 53 -125 59 -127 113 -363 127 -559 13 -176 11 -271 -7 -271 -17
0 -28 -28 -42 -105 -8 -47 -7 -75 4 -129 17 -80 33 -108 80 -139 27 -17 35
-29 35 -52 -1 -16 -7 -38 -14 -48 -12 -15 -15 -15 -26 -2 -7 8 -20 15 -30 15
-14 0 -20 -13 -29 -63 -16 -90 -14 -97 19 -132 l29 -30 -31 -2 c-17 -1 -47 -8
-67 -15 -35 -12 -34 -13 54 -19 50 -3 106 -11 125 -17 19 -6 60 -18 90 -26 30
-8 114 -31 185 -52 126 -35 138 -37 373 -46 163 -7 257 -7 285 0 41 9 41 10
10 11 -46 1 -41 17 7 25 45 7 48 17 25 74 -19 44 -53 82 -73 82 -8 0 -20 7
-26 15 -6 8 -29 16 -51 17 -27 2 -48 11 -65 28 -28 29 -107 63 -123 53 -6 -4
-8 0 -4 10 5 13 1 17 -16 18 -40 3 -92 -3 -100 -11 -5 -4 4 -6 20 -3 40 6 8
-12 -36 -21 l-34 -6 19 21 c18 20 18 21 0 34 -42 31 12 43 92 19 30 -9 28 8
-6 48 -37 42 -122 207 -122 236 0 20 2 21 20 10 11 -7 32 -30 47 -50 14 -21
32 -38 39 -38 19 0 19 76 0 83 -15 6 -39 87 -25 87 5 0 9 -5 9 -12 0 -6 2 -9
5 -6 8 8 -6 39 -15 33 -7 -4 -60 57 -60 69 0 3 7 6 15 6 10 0 15 10 15 28 0
36 -19 104 -28 98 -4 -2 -7 9 -8 26 -1 16 -7 35 -14 41 -10 10 -11 7 -5 -12 5
-17 4 -21 -5 -16 -7 4 -9 17 -6 31 4 15 -1 35 -15 56 -12 18 -19 26 -16 18 17
-50 14 -48 -18 15 -20 39 -34 78 -31 88 3 13 0 17 -10 13 -8 -3 -14 0 -14 7 0
7 -11 21 -25 31 -13 10 -22 23 -19 28 3 4 0 7 -7 6 -13 -3 -15 35 -5 80 3 14
0 25 -9 28 -10 4 -11 12 -5 28 5 14 4 28 -2 37 -8 11 -9 11 -5 -3 8 -22 -2
-29 -24 -17 -20 10 -26 39 -9 39 6 0 10 5 10 11 0 5 -6 7 -12 3 -10 -6 -10 -5
-1 7 8 9 10 29 6 52 -4 28 -2 37 8 37 11 0 11 2 1 8 -12 8 -22 91 -23 207 -1
101 -10 179 -20 164 -6 -9 -9 5 -10 41 -1 30 -3 47 -6 38 -2 -10 -9 -18 -14
-18 -11 0 -12 -3 6 45 8 22 14 54 14 70 -1 29 -2 28 -14 -10 -17 -52 -17 -32
0 89 8 55 20 105 29 115 10 11 17 47 21 111 3 58 11 103 20 117 18 27 19 34 3
32 -7 -1 -26 -1 -41 0 -40 1 -24 20 24 27 48 8 58 20 24 28 -24 6 -35 26 -14
26 5 0 8 4 4 9 -3 6 0 13 8 18 15 9 57 96 82 168 9 28 26 74 36 102 23 62 23
105 4 239 -15 110 -33 163 -47 142 -6 -10 -8 -8 -8 5 0 21 -1 21 -47 2 -44
-19 -42 -19 -36 4 3 10 0 22 -6 25 -6 4 -11 15 -11 24 1 11 6 8 16 -11 12 -22
18 -25 32 -18 18 10 20 19 26 151 2 47 11 112 20 146 43 163 68 571 45 744
-10 78 -16 128 -19 183 l-2 32 -10 -35 c-14 -52 -27 -58 -16 -8 6 24 12 66 14
93 4 39 2 47 -6 35 -10 -12 -11 -12 -5 5 3 10 -2 60 -11 109 -10 50 -19 85
-22 78 -2 -7 -8 -10 -13 -6 -14 9 -10 -109 6 -173 8 -31 15 -73 14 -93 -1 -23
-5 -10 -14 40 -7 41 -20 95 -29 119 -19 51 -22 86 -6 61 8 -13 10 -13 10 2 0
9 -5 20 -11 24 -23 14 -26 -21 -8 -85 10 -36 16 -73 14 -82 -3 -10 -2 -20 3
-23 5 -3 10 -47 10 -98 0 -64 -2 -80 -7 -53 -5 33 -8 36 -14 19 -4 -12 -5 -28
-2 -37 9 -21 -10 -30 -25 -12 -7 8 -17 12 -23 8 -6 -4 -7 -1 -3 6 5 7 14 10
22 7 8 -3 14 1 14 10 0 8 -4 13 -9 9 -5 -3 -12 -1 -16 5 -4 6 -11 7 -17 4 -5
-4 -2 6 7 22 10 17 11 22 2 11 -19 -23 -31 -22 -24 3 3 11 1 20 -5 20 -6 0 -8
6 -5 14 3 8 1 17 -6 19 -7 2 7 10 30 16 46 13 66 31 34 31 -11 0 -23 -4 -26
-10 -10 -15 -25 -12 -25 6 0 9 -8 18 -19 21 -13 3 -28 31 -49 94 -20 58 -43
104 -66 131 -20 23 -36 48 -36 55 0 7 -16 21 -35 30 -19 9 -35 20 -35 25 0 4
-16 14 -35 22 -20 9 -35 22 -35 32 0 11 -5 14 -16 10 -15 -6 -16 0 -10 46 4
29 16 98 27 153 11 54 18 107 16 117 -3 10 -1 21 4 24 5 3 10 -7 10 -23 1 -23
3 -24 6 -6 7 36 33 17 27 -20 -4 -29 0 -25 12 11 4 15 47 -12 110 -71 l41 -38
17 40 c19 48 21 127 5 203 -24 115 -93 317 -158 461 -10 23 -26 58 -34 77 -8
20 -42 87 -77 150 -65 119 -86 170 -69 170 5 0 17 17 25 38 9 20 20 45 25 54
5 10 9 32 9 49 0 40 22 34 31 -10 8 -38 68 -113 130 -160 35 -27 46 -43 55
-80 11 -46 78 -197 135 -304 21 -41 29 -66 25 -83 -4 -15 -1 -33 9 -47 8 -12
15 -37 15 -57 0 -45 32 -98 65 -106 21 -5 25 -12 25 -43 0 -49 33 -101 64
-101 19 0 25 -7 30 -33 3 -19 17 -44 31 -57 28 -26 32 -40 11 -40 -7 0 -19 -7
-26 -15 -10 -12 -8 -26 10 -71 13 -30 33 -71 46 -89 18 -27 20 -36 9 -45 -7
-6 -15 -20 -18 -31 -4 -17 1 -24 23 -32 16 -6 34 -23 40 -37 29 -69 89 -156
118 -169 29 -13 91 -105 78 -118 -3 -3 3 -13 14 -22 10 -9 27 -47 38 -86 11
-38 32 -108 47 -155 15 -47 26 -92 25 -100 -1 -8 -4 -59 -6 -114 -6 -105 4
-149 37 -167 30 -16 25 -64 -10 -90 -31 -23 -43 -45 -61 -116 -6 -26 -17 -43
-25 -43 -20 0 -47 -57 -40 -82 5 -14 -2 -29 -25 -53 -22 -23 -33 -45 -37 -76
-3 -24 -11 -58 -19 -75 -7 -17 -16 -56 -20 -87 -15 -129 60 -166 116 -57 11
22 20 51 20 65 0 26 12 52 43 94 9 13 17 34 17 46 0 27 39 65 69 65 14 0 28
-11 39 -31 9 -17 32 -51 50 -75 33 -45 35 -52 33 -167 -1 -32 3 -66 9 -76 7
-14 6 -22 -4 -31 -17 -13 -46 -94 -46 -126 0 -13 -9 -28 -20 -34 -11 -6 -23
-22 -26 -36 -3 -13 -26 -41 -50 -60 -47 -39 -54 -57 -26 -73 14 -8 15 -12 5
-22 -16 -16 -17 -55 -2 -65 6 -3 27 9 47 27 21 19 31 27 25 19 -18 -19 -16
-47 3 -54 10 -4 35 15 77 58 168 172 168 173 174 214 4 32 9 39 23 35 25 -7
40 24 46 99 3 35 15 89 26 120 11 32 17 67 13 78 -4 12 -1 27 5 35 17 21 -28
69 -48 52 -11 -9 -13 -6 -10 13 2 14 9 24 15 23 9 -2 10 4 2 25 -6 15 -10 28
-9 30 1 1 -3 26 -9 55 -12 64 -23 177 -15 159 7 -16 34 3 34 24 0 7 9 29 20
49 12 21 20 53 19 78 -1 36 -2 38 -9 17 -8 -24 -8 -23 -9 8 -1 18 -8 49 -16
69 -17 40 -19 57 -6 49 5 -3 11 10 13 29 2 19 1 35 -2 35 -15 0 -30 -27 -30
-53 l0 -29 -36 31 c-19 17 -55 41 -80 53 -55 25 -56 51 -4 86 l35 24 2 91 c1
51 3 108 4 127 2 19 -5 93 -15 163 -11 78 -15 150 -12 185 4 31 10 107 15 167
5 61 10 119 12 130 3 16 -1 20 -24 20 -32 -1 -32 -4 -48 150 -6 61 -9 153 -6
205 6 86 3 118 -18 187 -7 22 -7 22 110 17 191 -7 374 41 389 101 4 16 13 22
35 22 48 0 189 99 242 169 18 24 40 44 50 44 23 0 158 90 201 134 62 64 91
113 96 164 4 41 0 52 -23 81 -31 36 -181 116 -241 127 -21 4 -54 13 -71 21
-18 7 -36 12 -40 11 -5 0 -15 1 -23 5 -66 25 -117 35 -90 17 12 -8 11 -10 -6
-10 -12 0 -24 7 -28 15 -3 8 -16 15 -28 14 -22 0 -22 -1 -3 -9 11 -5 14 -9 7
-9 -7 -1 -23 6 -36 14 -15 10 -51 17 -99 18 -41 1 -73 5 -71 8 4 7 -104 15
-271 20 -153 6 -226 5 -401 -5 -89 -5 -166 -6 -171 -3 -7 4 -7 22 0 50 l10 44
96 7 c143 10 295 33 438 67 270 63 310 68 613 84 306 16 374 26 499 76 71 29
88 39 186 115 148 114 275 266 275 331 0 25 4 33 18 33 10 0 31 20 48 48 44
67 164 287 164 301 0 6 27 40 60 77 60 67 203 293 246 391 13 29 28 53 33 53
26 0 135 179 201 330 44 101 48 195 10 235 -31 34 -97 68 -116 61 -8 -3 -13
-2 -10 2 9 15 -96 34 -206 38 -99 3 -147 -2 -328 -36 -101 -19 -229 -53 -225
-61 3 -4 -16 -10 -41 -14 -49 -7 -114 -33 -126 -50 -4 -5 -8 -6 -8 -1 0 4 -11
1 -25 -8 -13 -9 -29 -16 -35 -16 -11 0 -253 -120 -361 -179 -138 -75 -198
-114 -192 -124 3 -6 1 -7 -5 -3 -15 9 -56 -13 -120 -63 -28 -23 -56 -41 -61
-41 -21 0 -164 -91 -178 -113 -5 -7 -30 -24 -56 -37 -27 -14 -59 -36 -71 -50
-26 -31 -63 -60 -52 -42 11 18 -4 15 -27 -5 -15 -13 -18 -14 -12 -3 8 13 7 13
-8 1 -12 -9 -17 -10 -17 -2 0 7 -5 9 -10 6 -6 -4 -7 -11 -4 -17 4 -6 2 -8 -4
-5 -16 10 -39 -2 -45 -24 -3 -10 -10 -19 -17 -19 -6 0 -8 5 -4 12 4 7 3 8 -4
4 -9 -5 -9 -13 -2 -26 7 -13 7 -21 0 -25 -6 -3 -13 1 -16 9 -6 14 -10 14 -39
-4 -18 -11 -35 -17 -37 -13 -3 5 -3 3 -2 -4 2 -6 0 -14 -4 -16 -4 -2 -2 -2 5
-1 22 5 23 -13 2 -40 -15 -19 -27 -24 -43 -20 -15 3 -31 -3 -50 -21 -19 -18
-34 -24 -49 -20 -13 4 -17 3 -11 -2 8 -5 5 -14 -8 -28 -18 -19 -19 -19 -12 -1
5 14 4 17 -4 12 -7 -4 -12 -14 -12 -22 0 -8 -7 -14 -15 -14 -18 0 -108 -57
-148 -94 -16 -14 -35 -26 -43 -26 -7 0 -19 -9 -26 -20 -7 -11 -22 -20 -34 -20
-14 0 -31 -14 -49 -41 -23 -36 -118 -135 -165 -174 -30 -25 -142 -95 -151 -95
-29 0 21 52 63 66 50 16 188 138 233 208 19 29 29 80 14 70 -5 -3 -7 -10 -3
-15 8 -13 -34 -58 -64 -70 -12 -5 -21 -14 -20 -21 2 -6 -5 -14 -15 -16 -28 -6
-83 -46 -113 -81 -15 -18 -29 -29 -32 -26 -3 3 -16 -2 -29 -10 -30 -20 -30 -3
0 18 12 9 17 16 10 16 -7 1 -29 -19 -50 -44 -33 -40 -65 -63 -47 -33 4 7 3 8
-5 4 -6 -4 -9 -11 -6 -15 2 -5 -4 -16 -14 -25 -11 -10 -20 -13 -22 -7 -2 5
-15 1 -29 -10 -22 -18 -23 -19 -2 -9 32 16 28 -6 -5 -24 -16 -8 -43 -22 -62
-32 -34 -17 -34 -18 -10 -26 13 -5 56 -8 95 -6 41 1 78 -2 85 -8 8 -6 28 -14
44 -18 83 -19 220 -111 289 -194 57 -68 86 -155 85 -257 -1 -44 -3 -72 -6 -62
-2 9 -11 17 -19 17 -8 0 -14 9 -14 20 0 11 4 20 10 20 5 0 7 7 3 16 -5 13 -7
13 -14 2 -5 -7 -9 -9 -9 -4 0 5 -7 3 -15 -4 -12 -10 -14 -8 -10 8 2 14 -3 22
-18 26 -18 5 -20 8 -7 16 12 8 12 10 1 10 -8 0 -20 8 -27 18 -12 16 -13 16
-14 0 0 -29 -19 -31 -53 -6 -32 25 -52 35 -159 89 -32 16 -58 34 -58 40 0 5
-4 7 -10 4 -6 -3 -10 -1 -10 4 0 6 -11 11 -25 11 -14 0 -28 7 -31 15 -4 8 -15
15 -25 15 -13 0 -17 5 -13 18 4 12 3 13 -3 4 -8 -10 -20 -10 -61 -1 -45 11
-53 16 -63 46 -7 21 -27 44 -55 64 -38 26 -49 29 -72 21 -15 -5 -36 -6 -47 -2
-35 13 -65 -25 -65 -82 0 -47 -1 -48 -25 -42 -20 5 -27 2 -33 -17 l-9 -23 -6
24 c-8 31 -14 24 -20 -23 -8 -58 10 -117 48 -159 32 -35 44 -74 35 -113 -1 -5
-2 -22 -2 -37 0 -16 -4 -28 -9 -28 -5 0 -9 5 -9 10 0 6 -4 10 -10 10 -5 0 -10
-9 -10 -19 0 -17 -4 -18 -36 -10 -19 6 -47 9 -62 6 l-27 -3 24 -11 c23 -9 22
-10 -19 -17 -24 -4 -51 -12 -59 -19 -8 -7 -17 -11 -20 -9 -3 2 -23 -2 -43 -9
-34 -11 -41 -9 -103 22 -36 18 -70 38 -76 45 -6 7 -27 18 -47 25 -47 15 -59
25 -89 73 -20 31 -24 49 -21 92 3 58 -9 76 -14 22 l-3 -33 -119 -3 c-131 -3
-142 1 -152 54 -4 20 -12 34 -21 34 -8 0 -12 -4 -8 -9 3 -5 7 -36 9 -68 7
-101 -10 -119 -212 -224 -79 -41 -97 -41 -149 -3 -17 13 -36 24 -41 24 -5 0
-15 6 -22 14 -6 8 -18 12 -26 9 -18 -7 -146 35 -156 51 -20 30 -8 92 29 146
31 46 37 63 37 107 0 74 -38 107 -78 68 -13 -14 -16 -14 -24 2 -4 10 -7 39 -6
65 2 51 -9 63 -51 52 -13 -3 -31 -1 -42 4 -23 12 -74 -2 -96 -26 -10 -10 -23
-49 -30 -86 -11 -64 -29 -88 -35 -48 -3 16 -9 18 -50 11 -26 -4 -50 -5 -54 -3
-4 2 -9 0 -12 -5 -3 -4 -19 -11 -36 -15 -17 -3 -29 -10 -25 -16 3 -6 -1 -7
-10 -4 -8 4 -22 0 -31 -7 -8 -7 -36 -14 -62 -15 -26 -2 -74 -5 -107 -8 -34 -3
-66 -2 -73 3 -18 11 39 74 87 96 23 10 40 20 37 22 -8 8 -63 -20 -105 -55 -25
-20 -52 -36 -60 -34 -9 2 -12 -2 -7 -13 3 -9 2 -13 -4 -10 -6 3 -10 2 -10 -4
0 -18 -28 -1 -33 21 -7 24 2 50 14 42 5 -3 9 -1 9 5 0 19 63 82 119 120 54 35
110 63 159 76 12 4 22 11 22 16 0 5 44 9 98 10 89 1 94 2 60 13 -21 6 -54 28
-76 49 -21 20 -43 37 -50 37 -6 0 -19 11 -28 25 -17 27 -77 67 -91 63 -12 -4
-113 51 -113 61 0 4 -34 31 -76 61 -42 30 -95 71 -117 90 -54 47 -35 11 34
-65 71 -77 156 -140 243 -181 64 -29 86 -47 86 -72 0 -3 -6 1 -12 10 -7 8 -26
18 -43 21 -59 11 -179 95 -294 206 -63 61 -118 111 -124 111 -5 0 -23 12 -41
26 -17 14 -53 41 -81 59 -27 19 -81 54 -118 80 -38 25 -74 44 -80 43 -7 -1
-38 17 -70 41 -42 30 -65 41 -80 37 -22 -5 -22 -5 1 12 18 14 20 20 10 30 -6
6 -16 12 -22 12 -5 0 -1 -7 10 -15 18 -14 17 -14 -8 -5 -18 6 -28 6 -28 0 0
-5 -19 11 -41 35 -29 32 -47 44 -60 40 -9 -3 -20 -1 -24 5 -16 27 -540 355
-655 411 -25 12 -61 32 -80 45 -19 13 -47 26 -62 29 -16 4 -28 11 -28 15 0 7
-201 110 -371 189 -87 41 -330 121 -367 121 -15 0 -51 7 -80 15 -108 32 -361
43 -474 20z m8895 -12 c-7 -2 -21 -2 -30 0 -10 3 -4 5 12 5 17 0 24 -2 18 -5z
m-53 -53 c0 -15 -38 -32 -45 -20 -3 5 -3 15 0 20 8 13 45 13 45 0z m36 -15
c-8 -8 -17 -15 -20 -15 -3 0 -3 7 0 15 4 8 13 15 21 15 12 0 12 -2 -1 -15z
m-146 -35 c0 -5 -5 -10 -11 -10 -5 0 -7 5 -4 10 3 6 8 10 11 10 2 0 4 -4 4
-10z m-17 -67 c1 -32 6 -39 27 -44 20 -5 17 -7 -15 -8 -22 -1 -61 -8 -87 -16
-27 -8 -48 -10 -48 -6 0 4 -11 13 -25 19 -25 11 -36 52 -14 52 5 0 7 -4 4 -10
-3 -5 -1 -10 5 -10 6 0 8 -5 4 -12 -10 -16 28 12 39 29 9 15 59 13 69 -2 4 -5
12 5 19 23 14 40 20 36 22 -15z m-228 -3 c4 -6 11 -8 16 -5 5 4 9 2 9 -4 0 -5
-4 -13 -10 -16 -5 -3 -10 -2 -10 3 0 6 -9 8 -20 5 -16 -4 -19 -2 -14 11 7 18
20 21 29 6z m-100 -20 c3 -6 -1 -13 -9 -16 -9 -3 -14 -10 -11 -14 2 -4 -5 -16
-17 -26 -13 -12 -18 -13 -13 -4 5 8 8 27 6 42 -2 22 2 28 18 28 11 0 23 -5 26
-10z m49 -26 c9 -22 -1 -33 -23 -27 -17 4 -18 8 -8 24 14 23 23 24 31 3z m291
-43 c-2 -11 2 -22 9 -24 7 -3 19 -26 26 -51 7 -25 18 -46 25 -46 8 0 10 -9 7
-25 -3 -16 -11 -25 -23 -25 -11 0 -19 -7 -19 -15 0 -8 7 -15 15 -15 8 0 15 -7
15 -15 0 -8 -9 -15 -19 -15 -11 0 -28 -3 -38 -6 -13 -4 -14 -3 -5 3 7 5 10 17
6 26 -8 22 -22 22 -20 0 1 -13 -7 -18 -26 -19 -21 -1 -25 2 -18 11 7 9 5 19
-9 36 -16 20 -16 25 -4 37 16 16 13 48 -4 45 -6 -1 -19 7 -28 17 -15 16 -16
24 -7 42 7 15 11 17 11 8 1 -13 2 -13 11 0 8 12 10 11 10 -7 0 -36 18 -36 40
-1 l20 33 -20 3 c-30 5 -14 22 20 22 23 0 28 -4 25 -19z m-270 -20 c0 -7 -20
-25 -45 -39 -25 -14 -40 -20 -33 -12 9 12 7 15 -12 15 -13 0 -21 -3 -19 -7 2
-4 -1 -10 -7 -14 -8 -4 -9 -3 -5 4 4 7 3 12 -3 12 -5 0 -9 -9 -8 -19 1 -12 6
-17 17 -14 9 3 7 -1 -5 -10 -11 -8 -29 -16 -40 -18 -11 -3 -20 -10 -20 -17 0
-16 -56 -53 -68 -45 -5 3 8 23 29 44 20 21 42 35 47 32 6 -3 7 -1 4 4 -10 16
62 76 84 70 11 -3 22 -1 25 4 3 5 9 7 14 4 4 -3 11 2 14 11 7 18 31 14 31 -5z
m55 15 c0 -2 -9 -6 -20 -9 -11 -3 -18 -1 -14 4 5 9 34 13 34 5z m-525 -45 c0
-6 6 -16 14 -20 7 -5 16 -32 19 -60 2 -28 8 -51 13 -51 5 0 9 -8 9 -19 0 -10
11 -30 24 -44 l24 -26 -40 -33 c-22 -18 -44 -32 -49 -30 -5 1 -8 -4 -6 -10 1
-8 -6 -12 -17 -10 -12 2 -16 -1 -10 -9 4 -7 -5 -4 -19 7 -31 22 -34 42 -9 60
15 12 15 13 0 14 -9 0 -22 14 -30 30 -15 34 -43 42 -35 10 4 -17 2 -18 -14 -9
-10 5 -19 16 -19 24 0 18 48 31 62 17 5 -5 18 -7 29 -5 24 7 44 39 29 48 -15
9 -1 27 16 21 20 -8 27 10 14 35 -9 15 -15 18 -23 10 -6 -6 -16 -11 -23 -11
-15 0 -24 34 -13 51 8 13 10 12 13 -10 3 -26 16 -20 16 8 0 22 4 31 13 29 6
-3 12 -10 12 -17z m315 5 c0 -1 -30 -31 -66 -66 -37 -36 -63 -58 -58 -50 4 8
30 35 56 58 26 24 46 47 43 51 -2 4 2 8 10 8 8 0 15 -1 15 -1z m225 -20 c-5
-15 -4 -17 3 -7 6 8 12 9 16 3 3 -5 -1 -12 -9 -16 -8 -3 -15 -15 -15 -26 0
-11 -4 -20 -9 -20 -5 0 -17 -7 -26 -16 -15 -15 -18 -15 -45 11 -16 16 -26 33
-23 38 4 7 -1 8 -13 3 -25 -10 -12 3 33 30 21 12 50 22 66 22 23 -1 26 -4 22
-22z m-316 -7 c-5 -11 -13 -19 -16 -19 -3 0 -3 3 0 7 4 3 -1 12 -10 18 -15 11
-14 13 10 13 23 0 25 -3 16 -19z m634 -8 c35 -14 67 -50 60 -69 -5 -12 -8 -11
-14 6 -6 14 -15 20 -29 17 -28 -5 -50 4 -50 21 0 8 -5 14 -11 14 -5 0 -7 5 -4
10 8 12 17 13 48 1z m136 -80 c-7 -2 -15 1 -16 6 -2 6 -14 9 -26 6 -22 -5 -22
-5 -2 10 18 14 22 14 38 -1 14 -12 15 -18 6 -21z m-649 9 c0 -5 -12 -13 -26
-16 -16 -4 -21 -9 -14 -14 6 -4 12 -21 12 -38 1 -21 6 -32 15 -32 19 0 11 -25
-8 -25 -8 0 -20 -4 -27 -9 -10 -6 -11 -2 -7 16 4 14 -1 31 -11 44 -16 20 -19
20 -48 6 -17 -9 -33 -18 -36 -22 -8 -11 -51 -32 -56 -28 -2 2 22 19 54 38 31
18 77 46 101 62 50 31 51 32 51 18z m160 -30 c12 -8 11 -10 -7 -10 -13 0 -23
5 -23 10 0 13 11 13 30 0z m340 -4 c0 -3 -4 -8 -10 -11 -5 -3 -10 -1 -10 4 0
6 5 11 10 11 6 0 10 -2 10 -4z m-260 -51 c0 -8 -4 -15 -10 -15 -5 0 -7 7 -4
15 4 8 8 15 10 15 2 0 4 -7 4 -15z m122 -29 c3 3 9 1 13 -5 4 -7 -5 -11 -24
-11 -17 0 -31 4 -31 9 0 5 -14 3 -31 -6 -17 -9 -47 -17 -68 -19 -20 -3 -53 -7
-73 -9 -24 -3 -38 -1 -38 5 0 6 -6 8 -12 4 -7 -4 -10 -3 -5 1 8 10 36 14 130
20 44 3 73 10 84 20 14 14 17 14 33 0 9 -8 19 -12 22 -9z m63 2 c6 -6 4 -7 -7
-3 -10 4 -18 4 -18 0 0 -4 8 -14 18 -21 15 -12 14 -13 -11 -14 -19 0 -27 4
-24 13 2 6 -3 20 -12 30 -15 18 -14 18 14 11 17 -3 35 -11 40 -16z m-1041 -17
c2 -3 -9 -7 -25 -8 -27 -2 -37 6 -23 19 6 7 42 -1 48 -11z m65 -39 c-13 -56
-11 -161 4 -176 10 -12 15 -12 32 2 10 10 -5 -12 -35 -46 -58 -67 -99 -99 -86
-67 4 12 2 16 -8 12 -10 -4 -13 -1 -9 9 3 7 9 14 13 14 4 0 10 7 13 14 4 10 1
13 -9 9 -7 -3 -14 -9 -14 -13 0 -4 -9 -10 -20 -13 -15 -4 -20 0 -20 13 0 11
-5 22 -12 26 -8 5 -9 -2 -5 -26 6 -29 5 -32 -13 -27 -23 6 -39 -12 -20 -23 17
-10 -3 -22 -24 -14 -20 8 -21 28 -1 44 13 11 12 15 -9 31 -14 11 -27 33 -31
49 -5 21 -14 32 -31 36 -13 3 -24 10 -24 15 0 14 48 11 53 -3 4 -10 6 -10 6 0
1 6 -9 22 -21 34 -14 14 -16 19 -6 15 18 -6 28 11 28 49 0 13 5 24 10 24 6 0
10 -4 10 -10 0 -5 9 -10 20 -10 11 0 20 -7 20 -16 0 -9 5 -12 12 -8 8 5 5 13
-10 24 -19 16 -20 18 -4 22 9 3 26 1 37 -3 11 -4 14 -8 8 -8 -7 -1 -13 -4 -12
-8 3 -18 -14 -52 -22 -47 -5 3 -9 -2 -9 -10 0 -8 4 -17 9 -20 11 -7 33 18 24
27 -3 4 0 7 8 8 24 1 63 9 79 16 8 3 22 7 30 7 14 1 33 72 23 88 -2 4 2 5 10
2 11 -4 13 -13 6 -42z m121 38 c0 -5 -8 -10 -17 -10 -15 0 -16 2 -3 10 19 12
20 12 20 0z m199 -17 c-11 -12 -11 -17 -2 -20 8 -3 9 -12 3 -28 -7 -18 -5 -25
8 -30 15 -6 13 -9 -8 -21 -19 -11 -20 -14 -5 -10 11 3 32 8 48 12 18 4 27 13
27 27 0 22 13 16 16 -7 2 -13 -10 -20 -66 -39 -8 -3 -53 -22 -100 -41 -46 -20
-85 -36 -87 -36 -1 0 2 11 7 25 5 14 9 29 7 33 -2 7 152 151 162 152 2 0 -3
-7 -10 -17z m241 -4 c0 -5 -4 -7 -10 -4 -5 3 -10 -1 -10 -9 0 -10 9 -16 23
-17 16 -1 14 -3 -11 -10 -29 -9 -36 -7 -53 12 -15 17 -17 24 -7 31 19 11 68
10 68 -3z m-635 -29 c3 -5 1 -10 -4 -10 -6 0 -11 5 -11 10 0 6 2 10 4 10 3 0
8 -4 11 -10z m-45 -15 c0 -8 -4 -15 -10 -15 -5 0 -7 7 -4 15 4 8 8 15 10 15 2
0 4 -7 4 -15z m973 -7 c12 -6 28 -17 35 -25 7 -7 20 -13 28 -13 8 0 14 -4 14
-10 0 -5 -8 -6 -17 -3 -16 6 -16 5 0 -17 22 -32 21 -43 -3 -37 -10 3 -21 0
-24 -7 -3 -6 -5 -4 -5 4 4 54 -14 69 -31 25 -5 -14 -16 -25 -24 -25 -23 0 -31
-22 -13 -35 25 -18 21 -39 -5 -31 -13 3 -27 6 -33 6 -5 0 -11 21 -12 46 -1 26
-5 50 -10 54 -12 12 -28 -11 -28 -40 0 -19 -4 -24 -20 -22 -11 2 -24 8 -29 12
-5 5 1 6 13 3 16 -4 22 -2 21 8 -5 32 1 70 9 65 5 -3 11 3 14 14 3 12 -1 24
-11 30 -25 14 104 13 131 -2z m-186 -4 c-3 -3 -12 -4 -19 -1 -8 3 -5 6 6 6 11
1 17 -2 13 -5z m-571 -29 c17 -15 23 -25 15 -25 -16 0 -51 29 -51 42 0 12 4
10 36 -17z m483 -9 c8 -10 9 -16 1 -21 -5 -3 -10 0 -11 7 0 10 -2 10 -6 1 -6
-17 -24 -16 -58 1 l-27 14 23 5 c47 9 67 7 78 -7z m91 -6 c0 -5 -2 -10 -4 -10
-3 0 -8 5 -11 10 -3 6 -1 10 4 10 6 0 11 -4 11 -10z m330 6 c0 -2 -7 -7 -16
-10 -8 -3 -12 -2 -9 4 6 10 25 14 25 6z m-895 -46 c-3 -5 -15 -15 -26 -20 -15
-9 -19 -7 -19 5 0 9 4 14 8 11 4 -2 14 -1 22 5 19 11 23 11 15 -1z m35 -4 c0
-2 -12 -11 -27 -20 l-28 -17 24 20 c23 21 31 25 31 17z m393 -18 c21 4 74 -27
61 -37 -11 -8 -14 -41 -4 -41 4 0 18 15 30 33 l21 32 -4 -35 c-3 -21 2 -44 11
-59 9 -13 17 -31 18 -40 1 -9 5 -28 9 -43 8 -32 -10 -39 -20 -8 -8 26 -29 26
-22 0 3 -11 2 -18 -3 -15 -4 3 -10 -2 -14 -10 -9 -26 -23 -17 -30 20 -8 39
-22 53 -39 36 -6 -6 -19 -11 -29 -11 -21 0 -43 -36 -28 -45 5 -3 10 -11 10
-17 0 -7 -4 -7 -14 1 -10 9 -13 7 -12 -11 1 -16 10 -24 35 -31 25 -6 31 -11
21 -17 -8 -5 -19 -6 -25 -2 -5 4 -18 5 -29 3 -10 -1 -15 2 -12 7 4 6 -3 8 -16
4 -13 -3 -19 -1 -15 5 4 6 -2 37 -13 68 -11 32 -20 60 -20 63 0 2 13 2 29 -1
23 -5 33 -1 47 18 10 14 27 25 37 25 10 0 16 4 13 9 -4 5 3 7 14 4 11 -3 23
-9 26 -14 3 -5 11 -9 17 -9 7 0 3 7 -7 15 -14 10 -20 26 -19 49 1 32 -1 34
-38 40 -38 6 -47 15 -32 30 4 4 12 1 18 -6 5 -8 18 -12 28 -10z m439 -10 c-11
-11 -32 -3 -32 12 0 4 9 6 21 3 13 -4 17 -9 11 -15z m-663 -29 c12 -27 12 -33
0 -40 -10 -6 -11 -9 -1 -9 6 0 12 -9 12 -20 0 -25 -27 -27 -33 -2 -4 15 -6 14
-12 -5 -7 -21 -35 -22 -35 -1 0 5 4 7 9 4 4 -3 5 13 1 36 -10 52 -4 68 24 68
14 0 26 -10 35 -31z m-179 1 c-8 -5 -19 -10 -25 -10 -5 0 -3 5 5 10 8 5 20 10
25 10 6 0 3 -5 -5 -10z m816 -6 c-20 -19 -20 -25 -1 -18 23 9 19 -29 -5 -51
-11 -10 -20 -24 -20 -32 0 -21 -18 -15 -25 8 -4 12 -12 18 -21 15 -8 -3 -14
-1 -14 4 0 6 6 10 14 10 18 0 49 30 41 38 -3 4 -10 0 -15 -8 -12 -20 -20 -9
-14 17 5 20 21 27 62 32 10 1 9 -3 -2 -15z m-416 -25 c0 -6 -4 -7 -10 -4 -5 3
-10 11 -10 16 0 6 5 7 10 4 6 -3 10 -11 10 -16z m-930 -7 c11 -11 16 -23 11
-30 -9 -14 -23 -2 -34 31 -8 22 -1 22 23 -1z m476 9 c-3 -5 -17 -11 -32 -14
-29 -5 -20 9 11 16 11 3 21 5 23 6 2 0 1 -3 -2 -8z m99 -11 c-3 -5 1 -10 10
-10 11 0 15 -5 12 -14 -4 -9 1 -17 11 -19 15 -4 15 -5 1 -6 -18 -1 -52 43 -42
53 10 10 15 7 8 -4z m-854 -24 c-17 -21 -91 -70 -96 -64 -3 3 18 21 47 41 59
40 65 43 49 23z m268 -11 c13 -14 27 -25 32 -25 5 0 9 -4 9 -10 0 -5 -9 -10
-19 -10 -11 0 -23 -4 -26 -10 -10 -15 -35 -12 -35 5 0 8 -7 15 -15 15 -20 0
-19 19 2 42 21 23 23 23 52 -7z m-219 1 c0 -2 -7 -7 -16 -10 -8 -3 -12 -2 -9
4 6 10 25 14 25 6z m700 -35 c0 -23 -5 -30 -25 -33 -22 -5 -25 -2 -19 15 4 14
3 18 -7 12 -8 -4 -3 3 11 14 33 28 40 26 40 -8z m640 19 c0 -5 -8 -10 -17 -10
-15 0 -16 2 -3 10 19 12 20 12 20 0z m-366 -35 c4 -10 -1 -15 -14 -15 -13 0
-18 5 -14 15 4 8 10 15 14 15 4 0 10 -7 14 -15z m-1174 -36 c-27 -22 -65 -39
-83 -39 -10 1 89 57 103 59 3 0 -6 -9 -20 -20z m695 1 c-10 -11 -22 -20 -28
-20 -5 0 1 9 14 20 31 25 37 25 14 0z m-945 0 c0 -5 -2 -10 -4 -10 -3 0 -8 5
-11 10 -3 6 -1 10 4 10 6 0 11 -4 11 -10z m685 -10 c3 -5 1 -10 -4 -10 -6 0
-11 5 -11 10 0 6 2 10 4 10 3 0 8 -4 11 -10z m208 -23 c-5 -8 -8 -7 -11 1 -2
7 -8 12 -13 12 -4 0 -6 -8 -2 -17 5 -15 3 -16 -7 -6 -19 18 6 49 26 32 8 -6
11 -16 7 -22z m240 -14 c18 1 35 6 39 12 5 6 8 5 8 -2 0 -7 9 -13 19 -13 29 0
52 -11 45 -22 -3 -5 -12 -4 -20 3 -12 10 -13 9 -8 -4 4 -10 24 -18 59 -22 61
-8 78 -1 70 25 -3 10 -1 21 5 25 5 3 10 -1 10 -10 0 -10 5 -13 13 -9 6 4 9 4
5 -1 -4 -4 -2 -15 5 -23 9 -13 9 -14 0 -8 -7 4 -13 3 -13 -1 0 -8 -131 -37
-205 -46 -11 -2 -30 -8 -41 -15 -12 -6 -24 -9 -27 -6 -3 4 -21 -3 -40 -15 -33
-20 -67 -31 -37 -11 13 8 13 10 -2 10 -19 0 -19 -2 32 83 6 10 7 17 1 17 -5 0
-11 -6 -14 -12 -2 -7 -8 -10 -12 -6 -4 4 -1 16 7 27 8 12 18 18 21 15 4 -4 9
1 13 10 3 9 10 13 15 10 5 -3 10 1 10 8 1 7 3 5 6 -4 3 -12 14 -16 36 -15z
m-446 -5 c-3 -8 -6 -5 -6 6 -1 11 2 17 5 13 3 -3 4 -12 1 -19z m795 -8 c4 -27
2 -30 -21 -30 -19 0 -22 3 -12 9 7 5 10 14 7 20 -8 12 0 31 13 31 5 0 11 -13
13 -30z m311 13 c4 -2 7 -19 7 -36 -1 -30 -1 -31 -13 -10 -11 20 -14 20 -37 8
-25 -14 -25 -14 -2 -15 12 0 22 -5 22 -10 0 -12 -91 -3 -125 12 -14 6 -7 7 21
3 44 -5 60 8 55 48 -2 16 2 18 31 12 18 -4 36 -9 41 -12z m-1133 -3 c0 -5 -4
-10 -9 -10 -6 0 -13 5 -16 10 -3 6 1 10 9 10 9 0 16 -4 16 -10z m370 -10 c0
-5 -4 -10 -10 -10 -5 0 -10 -10 -11 -22 0 -13 -3 -17 -6 -10 -4 10 -8 10 -20
1 -12 -10 -16 -10 -24 2 -6 10 -3 15 14 17 12 2 26 10 30 18 9 16 27 19 27 4z
m-102 -22 c-2 -14 2 -22 10 -20 14 2 16 -14 2 -23 -5 -3 -10 -1 -10 5 0 6 -4
9 -8 6 -4 -2 -14 0 -22 6 -12 8 -12 9 3 4 11 -3 16 -2 12 4 -9 14 -24 12 -41
-5 -17 -17 -34 -20 -34 -6 0 11 60 51 78 51 8 0 12 -9 10 -22z m-298 -34 c0
-8 -7 -14 -15 -14 -10 0 -15 10 -15 26 0 22 2 25 15 14 8 -7 15 -19 15 -26z
m35 26 c3 -5 17 -10 29 -10 32 0 42 -36 15 -51 -16 -8 -24 -6 -40 13 -34 40
-42 58 -25 58 8 0 18 -4 21 -10z m-175 -11 c0 -5 -4 -8 -9 -5 -5 3 -8 -9 -7
-26 1 -24 -4 -33 -18 -36 -16 -3 -18 0 -12 24 8 32 24 54 37 54 5 0 9 -5 9
-11z m50 7 c0 -9 -30 -14 -35 -6 -4 6 3 10 14 10 12 0 21 -2 21 -4z m245 -26
c-3 -5 -12 -10 -18 -10 -7 0 -6 4 3 10 19 12 23 12 15 0z m683 3 c-10 -2 -28
-2 -40 0 -13 2 -5 4 17 4 22 1 32 -1 23 -4z m-1111 -9 c-3 -3 -12 -4 -19 -1
-8 3 -5 6 6 6 11 1 17 -2 13 -5z m463 2 c0 -2 -8 -10 -17 -17 -16 -13 -17 -12
-4 4 13 16 21 21 21 13z m187 -23 c3 -7 -4 -9 -16 -6 -12 3 -18 9 -15 15 7 11
26 6 31 -9z m-171 -12 c11 9 14 7 14 -9 0 -12 6 -24 12 -28 17 -11 48 -12 48
-3 0 8 15 6 50 -8 24 -10 24 -10 -15 -23 -22 -8 -48 -13 -58 -12 -9 0 -15 -3
-12 -8 3 -5 -21 -21 -52 -35 -32 -15 -67 -32 -78 -37 -11 -5 -7 2 10 16 17 14
24 25 18 26 -7 0 -13 8 -13 17 0 9 -3 13 -7 10 -3 -4 -13 -1 -22 7 -18 16 -72
10 -70 -8 3 -24 -1 -37 -10 -31 -15 9 -41 -24 -41 -52 0 -22 4 -25 26 -20 35
6 18 -6 -30 -22 -35 -12 -41 -12 -51 3 -10 13 -18 14 -44 5 -37 -13 -39 -22
-9 -36 18 -8 10 -11 -51 -22 -41 -6 -82 -16 -93 -22 -11 -6 -18 -7 -15 -2 3 5
24 18 46 29 23 10 41 23 41 27 0 5 5 5 10 2 13 -8 42 14 35 26 -6 9 46 39 68
39 8 0 17 9 20 19 2 11 20 27 38 37 19 9 49 30 68 46 30 26 35 28 43 14 10
-18 58 -22 58 -5 0 5 6 7 13 4 6 -4 4 0 -5 8 -10 8 -15 17 -11 20 3 4 -2 7
-12 7 -18 0 -18 1 0 14 14 10 26 11 43 5 16 -6 29 -6 38 2z m674 -3 c0 -9 4
-8 10 2 5 8 10 10 10 4 0 -6 -7 -17 -15 -24 -8 -7 -15 -18 -14 -24 3 -26 -2
-56 -8 -55 -19 3 -47 -3 -35 -8 6 -2 9 -10 5 -16 -4 -7 1 -6 11 2 15 13 19 13
27 0 5 -8 9 -25 9 -38 0 -20 -2 -21 -15 -11 -8 7 -12 17 -8 23 3 5 1 7 -5 3
-6 -3 -10 -19 -10 -35 1 -22 5 -27 19 -24 21 6 23 0 9 -27 -7 -13 -5 -24 10
-43 11 -14 20 -30 20 -35 0 -15 -105 -5 -255 23 -71 13 -138 25 -147 27 -16 3
-15 7 8 33 14 17 23 25 20 18 -4 -6 -1 -15 6 -19 8 -5 6 -10 -8 -15 -15 -6
-12 -8 14 -8 17 -1 31 2 31 7 -1 4 -1 16 0 26 1 18 2 18 21 1 11 -10 20 -13
20 -7 0 7 7 12 15 12 8 0 15 -7 15 -16 0 -14 3 -14 15 -4 8 7 15 19 15 26 0
10 11 12 43 9 46 -5 80 2 72 14 -2 5 -16 6 -30 3 -15 -2 -25 0 -25 7 0 6 -10
11 -22 11 -31 0 -17 9 21 14 17 2 34 -1 37 -5 3 -5 10 -7 15 -4 5 4 9 2 9 -2
0 -5 9 -9 20 -9 24 0 26 24 5 52 -12 16 -16 17 -24 4 -5 -8 -7 -19 -4 -25 3
-5 -4 0 -16 13 -21 21 -21 49 0 37 5 -4 9 4 9 17 0 18 2 20 9 8 6 -8 7 -18 5
-22 -3 -4 0 -8 5 -8 13 0 14 40 2 59 -6 9 -5 19 2 27 15 17 77 18 77 2z m193
-3 c39 -6 48 -24 22 -45 -8 -7 -15 -21 -15 -32 0 -25 -21 -32 -51 -16 -20 11
-24 21 -26 61 -1 40 1 47 15 43 10 -2 34 -7 55 -11z m197 12 c0 -2 -10 -12
-22 -23 l-23 -19 19 23 c18 21 26 27 26 19z m-1950 -22 c-11 -13 -10 -14 5 -9
13 5 16 4 11 -4 -10 -16 -33 -15 -39 2 -7 17 1 26 21 26 12 0 12 -3 2 -15z
m770 11 c0 -2 -7 -7 -16 -10 -8 -3 -12 -2 -9 4 6 10 25 14 25 6z m678 -41 c-3
-29 -28 -35 -28 -7 0 10 3 22 7 25 13 14 23 6 21 -18z m-779 -28 c-12 -10 -35
-21 -50 -24 -15 -3 -29 -13 -32 -22 -2 -9 -33 -36 -68 -61 -35 -24 -57 -36
-49 -25 11 14 12 19 2 22 -6 3 -10 9 -6 14 3 5 -2 9 -12 9 -14 0 -14 3 -4 15
7 9 10 18 6 22 -3 3 -6 1 -6 -6 0 -7 -4 -9 -10 -6 -5 3 -10 15 -10 26 0 18 10
23 38 20 7 -1 19 4 27 12 14 15 60 12 81 -4 7 -6 18 -1 29 11 13 14 29 20 53
18 l34 -2 -23 -19z m576 13 c4 -6 10 -8 15 -5 16 10 38 -6 33 -26 -3 -10 -9
-17 -13 -14 -5 3 -11 1 -15 -5 -10 -16 -26 -12 -23 7 2 10 -7 19 -25 24 -36
10 -46 -11 -23 -46 25 -39 19 -51 -12 -22 -33 32 -42 33 -43 10 -1 -17 -2 -17
-6 0 -7 28 -21 20 -16 -10 l4 -28 -15 30 c-8 17 -15 24 -15 18 -1 -8 -17 -13
-43 -13 -42 0 -42 1 -18 13 17 9 27 10 32 3 5 -7 8 -7 8 2 0 6 7 12 15 12 14
0 20 12 16 33 -1 5 2 6 7 3 5 -3 18 1 28 9 22 17 100 20 109 5z m165 -40 c8
-5 11 -10 5 -10 -5 0 -17 5 -25 10 -8 5 -10 10 -5 10 6 0 17 -5 25 -10z m-637
-29 c4 -1 7 -5 7 -11 0 -15 -23 -12 -46 5 -18 14 -18 15 6 11 14 -3 28 -5 33
-5z m521 -6 c-4 -11 -2 -13 9 -10 9 4 16 -1 20 -14 3 -12 2 -21 -2 -21 -15 0
-43 39 -36 49 9 16 15 13 9 -4z m62 -22 c-10 -10 -19 5 -10 18 6 11 8 11 12 0
2 -7 1 -15 -2 -18z m-396 2 c11 -2 20 0 20 6 0 5 5 9 10 9 6 0 10 -6 9 -12 -4
-21 12 -68 22 -68 6 0 5 8 -1 19 -14 28 -12 41 5 35 8 -4 15 -15 15 -25 0 -10
7 -19 15 -19 9 0 15 10 15 26 0 15 4 23 11 19 6 -4 8 -13 5 -20 -2 -7 2 -16
10 -19 26 -10 62 -7 67 7 4 9 6 9 6 -1 1 -7 -6 -15 -15 -19 -12 -4 -13 -8 -3
-14 9 -5 4 -10 -15 -15 -16 -4 -31 -3 -35 2 -7 11 -29 12 -216 16 -71 1 -143
-1 -160 -6 -23 -6 -27 -5 -19 4 7 7 23 13 37 13 14 1 23 5 21 8 -2 4 16 4 41
1 35 -3 46 -1 51 12 3 9 14 16 23 16 9 0 23 9 31 19 7 11 17 18 22 15 4 -3 17
-7 28 -9z m-522 -55 c11 -18 9 -22 -20 -40 -18 -11 -39 -20 -45 -20 -7 0 -13
-6 -14 -12 0 -10 -2 -10 -6 0 -5 12 52 92 65 92 4 0 13 -9 20 -20z m1188 -33
c11 4 9 -4 -7 -31 -12 -20 -22 -36 -23 -34 -1 2 0 28 3 58 3 33 7 44 9 28 2
-19 8 -25 18 -21z m-2111 -17 c-3 -5 -10 -10 -16 -10 -5 0 -9 5 -9 10 0 6 7
10 16 10 8 0 12 -4 9 -10z m1170 1 c-25 -10 -118 -21 -110 -13 6 6 77 19 110
20 l20 1 -20 -8z m272 3 c-3 -3 -12 -4 -19 -1 -8 3 -5 6 6 6 11 1 17 -2 13 -5z
m-5930 -10 c-3 -3 -12 -4 -19 -1 -8 3 -5 6 6 6 11 1 17 -2 13 -5z m6070 0 c-3
-3 -12 -4 -19 -1 -8 3 -5 6 6 6 11 1 17 -2 13 -5z m-554 -21 c-7 -2 -19 -2
-25 0 -7 3 -2 5 12 5 14 0 19 -2 13 -5z m-76 -19 c-3 -3 -12 -4 -19 -1 -8 3
-5 6 6 6 11 1 17 -2 13 -5z m-5752 -33 c3 -5 1 -12 -5 -16 -7 -4 -7 -13 0 -26
13 -23 2 -49 -11 -28 -7 11 -9 10 -9 -3 0 -10 -6 -18 -14 -18 -23 0 -46 11
-46 22 0 7 5 7 13 0 10 -8 13 -6 14 8 2 21 33 69 45 70 4 0 9 -4 13 -9z m785
-26 l25 -30 -27 24 c-16 14 -28 29 -28 34 0 6 1 8 3 6 1 -2 13 -17 27 -34z
m5335 26 c-7 -12 -65 -11 -65 1 0 4 16 8 36 8 19 0 33 -4 29 -9z m138 -6 c20
-8 47 -15 61 -15 13 0 27 -6 29 -12 4 -10 7 -10 14 -1 7 9 14 9 32 0 29 -15
29 -31 0 -35 -17 -3 -21 0 -15 15 5 16 4 15 -11 -2 -18 -21 -161 -55 -229 -55
-17 0 -52 -6 -77 -14 -26 -8 -47 -10 -47 -6 0 5 5 10 11 12 6 2 12 15 13 28 1
20 6 24 26 22 14 -1 27 -7 28 -12 2 -6 20 -10 39 -10 34 0 35 1 30 29 -5 21
-2 31 9 35 9 4 14 13 10 21 -7 20 30 20 77 0z m-813 1 c0 -2 -8 -10 -17 -17
-16 -13 -17 -12 -4 4 13 16 21 21 21 13z m1105 -26 c-3 -5 0 -7 8 -4 8 3 18 1
22 -5 3 -7 -3 -12 -17 -12 -13 -1 -40 -3 -60 -5 -43 -4 -55 21 -15 29 42 8 68
7 62 -3z m-597 -23 c-4 -21 11 -47 28 -47 4 0 13 8 20 18 12 16 13 16 14 -4 0
-50 -29 -61 -186 -71 -69 -4 -93 -2 -99 7 -5 8 -4 11 3 6 6 -3 14 -1 18 5 4 8
3 9 -4 5 -7 -4 -12 -2 -12 4 0 6 -5 8 -12 3 -24 -15 -37 -11 -54 15 -9 15 -11
22 -4 15 10 -9 20 -7 44 11 17 13 50 26 73 29 37 4 43 2 49 -16 7 -21 8 -20
20 8 13 29 14 27 18 -17 1 -7 8 -20 16 -28 13 -14 17 -10 33 32 19 49 43 66
35 25z m72 8 c0 -8 -4 -15 -10 -15 -5 0 -7 7 -4 15 4 8 8 15 10 15 2 0 4 -7 4
-15z m653 -13 c-7 -4 -10 -17 -6 -30 3 -12 9 -19 14 -16 5 3 9 0 9 -5 0 -13
-10 -14 -29 -2 -7 5 -11 13 -7 19 9 15 -12 26 -27 14 -7 -5 -24 -9 -39 -8 -19
1 -24 -2 -17 -10 6 -7 4 -15 -5 -23 -12 -11 -13 -17 -1 -46 13 -29 13 -34 -1
-39 -25 -10 -36 -7 -28 7 4 6 -1 4 -11 -5 -25 -24 -11 -35 26 -21 30 12 31 11
25 -13 -15 -57 -17 -114 -5 -114 7 0 10 -2 7 -5 -7 -7 -77 37 -78 48 0 5 9 11
20 14 24 6 17 23 -10 23 -11 0 -24 -9 -30 -20 -12 -22 -43 -28 -35 -7 7 16
-90 10 -104 -7 -8 -10 -3 -11 20 -8 29 4 30 3 18 -16 -7 -11 -16 -19 -20 -16
-11 6 -17 -54 -6 -65 10 -10 -4 -15 -64 -25 -35 -6 -36 -6 -36 26 0 18 4 39
10 46 6 8 6 12 -2 12 -6 0 -11 7 -11 16 0 14 -2 15 -17 3 -15 -12 -16 -12 -11
2 4 9 0 26 -8 38 -14 19 -13 20 2 14 13 -5 16 -3 11 10 -6 15 3 22 26 18 4 0
7 12 7 29 0 17 -4 30 -10 30 -5 0 -10 -5 -10 -11 0 -16 -21 1 -29 25 -15 39 6
63 60 70 54 7 82 -1 55 -16 -9 -5 -16 -18 -16 -30 0 -15 3 -18 13 -10 6 5 21
6 32 2 11 -4 26 -5 33 -3 6 3 20 2 30 -2 33 -15 63 -16 61 -3 -3 27 1 38 16
38 9 0 12 6 8 16 -5 13 -7 13 -14 2 -7 -10 -9 -10 -9 3 0 22 42 39 98 40 26 0
56 4 67 9 25 11 44 12 28 2z m-6776 -18 c-3 -3 -12 -4 -19 -1 -8 3 -5 6 6 6
11 1 17 -2 13 -5z m6990 -36 c-3 -8 -6 -5 -6 6 -1 11 2 17 5 13 3 -3 4 -12 1
-19z m-417 3 c0 -12 -21 -19 -42 -13 -29 7 -21 22 12 22 17 0 30 -4 30 -9z
m250 -1 c0 -5 -5 -10 -11 -10 -5 0 -7 5 -4 10 3 6 8 10 11 10 2 0 4 -4 4 -10z
m-6792 -7 c-10 -2 -26 -2 -35 0 -10 3 -2 5 17 5 19 0 27 -2 18 -5z m6221 -30
c-22 -28 -28 -30 -62 -27 -49 6 -55 22 -11 29 22 3 46 8 54 10 30 6 32 5 19
-12z m-522 -19 c-3 -3 -12 -4 -19 -1 -8 3 -5 6 6 6 11 1 17 -2 13 -5z m349 -3
c-3 -4 29 -13 70 -19 42 -5 78 -13 81 -16 4 -3 -2 -15 -12 -26 -9 -10 -15 -25
-13 -32 7 -17 -54 -20 -64 -4 -5 7 -12 5 -21 -7 -12 -17 -14 -17 -26 -3 -10
12 -10 16 -1 16 6 0 0 14 -14 31 -14 17 -26 34 -26 39 0 5 -8 11 -17 13 -10 2
-8 3 5 2 12 -1 25 2 28 6 3 5 7 9 10 9 3 0 3 -4 0 -9z m-99 -32 c-9 -15 -23
-18 -67 -16 -38 1 -55 -2 -55 -10 0 -7 -3 -13 -7 -13 -5 0 -13 0 -19 0 -6 0
-9 9 -6 20 3 10 2 19 -2 18 -3 0 -15 1 -26 3 -23 3 89 14 151 15 38 0 41 -1
31 -17z m963 1 c0 -5 -7 -10 -15 -10 -8 0 -15 5 -15 10 0 6 7 10 15 10 8 0 15
-4 15 -10z m-1180 -9 c0 -4 11 -6 25 -3 20 3 25 0 25 -17 0 -12 6 -21 15 -21
8 0 15 -2 15 -4 0 -2 3 -13 7 -23 4 -13 -2 -10 -24 10 -19 18 -33 25 -37 18
-4 -6 -20 -8 -35 -5 -26 5 -30 3 -36 -25 -4 -17 -12 -31 -18 -31 -7 -1 -1 -7
13 -15 14 -8 18 -14 10 -14 -31 1 -45 15 -48 49 -2 19 -8 37 -13 38 -5 2 -6 8
-3 13 4 6 11 6 20 -2 10 -8 17 -7 29 5 15 15 14 16 -7 16 -18 0 -20 2 -8 10
19 12 70 13 70 1z m-139 -44 c-6 -8 -8 -16 -5 -19 2 -3 -7 -5 -21 -5 -14 0
-28 3 -31 8 -3 5 1 6 8 4 8 -3 22 1 33 9 25 19 31 20 16 3z m279 -31 c0 -8 6
-16 13 -19 22 -8 3 -15 -25 -10 -23 4 -26 8 -17 24 11 22 29 25 29 5z m38 -17
c-3 -8 -7 -3 -11 10 -4 17 -3 21 5 13 5 -5 8 -16 6 -23z m779 9 c-3 -8 -6 -5
-6 6 -1 11 2 17 5 13 3 -3 4 -12 1 -19z m-712 -18 c3 -5 -1 -10 -9 -10 -9 0
-16 5 -16 10 0 6 4 10 9 10 6 0 13 -4 16 -10z m133 -21 c15 -24 10 -34 -13
-26 -15 6 -22 47 -7 47 4 0 13 -9 20 -21z m-434 -35 c16 -8 39 -14 50 -15 28
-1 -78 -23 -236 -49 -148 -23 -138 -23 -138 -10 0 6 6 10 14 10 13 0 25 22 30
56 1 7 6 17 11 21 4 4 5 2 1 -4 -8 -15 5 -17 20 -4 5 5 18 11 29 14 35 9 189
-5 219 -19z m176 16 c0 -5 -2 -10 -4 -10 -3 0 -8 5 -11 10 -3 6 -1 10 4 10 6
0 11 -4 11 -10z m122 -15 c6 -29 -7 -34 -15 -6 -4 17 0 31 9 31 1 0 4 -11 6
-25z m-1201 -8 c-10 -9 -11 -8 -5 6 3 10 9 15 12 12 3 -3 0 -11 -7 -18z m996
17 c-3 -3 -12 -4 -19 -1 -8 3 -5 6 6 6 11 1 17 -2 13 -5z m536 -14 c-3 -11
-10 -17 -16 -13 -6 4 -8 0 -4 -10 8 -20 -1 -47 -15 -47 -6 0 -8 6 -5 14 7 17
-19 30 -29 14 -4 -7 -9 -6 -15 3 -8 11 -12 11 -23 -4 -10 -13 -27 -17 -75 -16
-54 1 -61 4 -61 21 0 13 5 18 14 15 7 -3 18 -1 23 4 6 6 16 2 28 -11 17 -19
19 -19 37 -3 13 11 33 16 63 14 35 -1 46 2 55 19 14 26 30 26 23 0z m261 5
c16 -12 17 -15 4 -15 -8 0 -21 7 -28 15 -16 19 -1 19 24 0z m-634 -25 c0 -5
-8 -10 -17 -10 -15 0 -16 2 -3 10 19 12 20 12 20 0z m114 -15 c6 -17 -27 -19
-79 -4 -22 6 -18 7 19 3 33 -4 46 -2 41 5 -3 6 -2 11 3 11 6 0 12 -7 16 -15z
m526 2 c0 -2 -10 -12 -21 -23 -22 -19 -22 -19 -8 4 12 19 29 30 29 19z m-750
-39 c0 -5 -7 -3 -15 6 -8 8 -15 18 -15 22 0 3 7 1 15 -6 8 -7 15 -17 15 -22z
m47 26 c-3 -3 -12 -4 -19 -1 -8 3 -5 6 6 6 11 1 17 -2 13 -5z m-156 -25 l24
-21 -22 5 c-13 3 -23 1 -23 -4 0 -5 -3 -8 -7 -8 -23 4 -33 -3 -33 -21 0 -11
-4 -20 -10 -20 -20 0 -10 29 18 50 15 12 20 21 12 20 -8 -1 -24 -2 -35 -1 -17
1 -18 3 -5 11 24 16 56 11 81 -11z m-3281 -4 c7 -9 10 -18 7 -21 -9 -9 -45 6
-51 21 -7 20 28 20 44 0z m1670 -3 c-14 -2 -29 -8 -34 -13 -6 -5 -24 -8 -40
-8 -17 1 -23 3 -13 6 9 2 17 8 17 13 0 12 29 17 65 11 28 -5 29 -5 5 -9z
m2640 14 c0 -2 -8 -10 -17 -17 -16 -13 -17 -12 -4 4 13 16 21 21 21 13z m-857
-21 c-3 -9 -8 -14 -10 -11 -3 3 -2 9 2 15 9 16 15 13 8 -4z m-363 -11 c0 -12
7 -15 25 -12 24 5 33 -6 39 -50 3 -18 35 -25 52 -11 9 8 13 3 16 -17 2 -15 9
-29 16 -32 10 -3 10 2 1 22 -10 21 -9 31 1 51 14 27 43 43 33 19 -3 -7 -9 -14
-14 -14 -5 0 -4 -11 1 -24 5 -13 6 -27 2 -31 -4 -4 -7 -11 -7 -17 0 -9 -64
-32 -155 -56 -25 -7 -75 -21 -112 -31 -38 -11 -68 -16 -68 -11 0 4 -9 6 -20 3
-21 -5 -28 11 -10 22 6 3 10 17 10 31 0 22 3 24 23 18 12 -4 30 -7 40 -6 11 0
15 -4 10 -11 -3 -6 7 -1 24 11 35 25 44 27 38 10 -7 -20 10 -39 28 -32 10 3
20 17 23 31 5 17 12 23 23 20 20 -5 46 19 31 28 -6 3 -14 3 -20 0 -5 -3 -10
-1 -10 4 0 6 7 11 15 11 18 0 20 20 3 21 -7 0 -20 2 -28 5 -89 24 -150 29
-150 13 0 -5 5 -7 10 -4 6 3 13 -1 16 -10 4 -9 13 -14 20 -11 7 3 16 1 19 -4
7 -11 33 -9 53 4 7 4 12 4 11 -1 -3 -20 2 -27 11 -13 8 12 10 11 10 -7 0 -17
-4 -21 -16 -16 -13 5 -15 2 -10 -13 3 -10 1 -26 -5 -34 -9 -12 -10 -11 -6 7 6
26 -16 62 -27 45 -9 -15 -53 -16 -61 -1 -4 6 -13 8 -20 5 -8 -3 -17 7 -24 25
-5 16 -14 29 -18 28 -4 -1 -26 0 -48 1 l-40 2 45 9 c25 4 79 14 120 22 101 19
100 19 100 1z m470 -3 c0 -4 -7 -8 -15 -8 -8 0 -15 6 -15 13 0 8 6 11 15 8 8
-4 15 -9 15 -13z m243 2 c74 -6 119 -23 60 -23 -15 0 -43 -4 -62 -10 -27 -7
-40 -6 -62 7 -16 10 -29 21 -29 26 0 4 -4 6 -9 2 -5 -3 -13 0 -17 6 -5 9 0 10
17 5 13 -4 59 -10 102 -13z m187 2 c0 -9 -6 -12 -15 -9 -8 4 -15 10 -15 15 0
5 7 9 15 9 8 0 15 -7 15 -15z m-379 -13 c-7 -2 -18 1 -23 6 -8 8 -4 9 13 5 13
-4 18 -8 10 -11z m-1939 -10 c32 -15 35 -19 24 -34 -13 -18 -56 -21 -56 -4 0
5 -8 19 -17 30 -17 20 -17 20 0 7 15 -12 17 -12 11 3 -8 20 -6 20 38 -2z
m2244 3 c-3 -8 -1 -15 4 -15 6 0 10 4 10 8 0 4 9 8 20 9 11 1 20 -2 20 -7 0
-4 7 -11 16 -14 8 -3 12 -2 9 3 -8 14 9 21 25 10 11 -6 12 -9 2 -9 -9 0 -11
-7 -7 -20 3 -11 2 -28 -4 -37 -6 -10 -11 -13 -11 -6 0 7 -7 10 -16 6 -8 -3
-13 -12 -9 -21 5 -13 3 -13 -12 -1 -10 8 -22 19 -26 24 -5 6 -6 2 -3 -8 5 -15
2 -17 -14 -13 -11 3 -29 9 -40 12 -14 4 -20 1 -20 -12 0 -13 -3 -14 -15 -4
-12 10 -16 8 -23 -11 -9 -22 -9 -22 -17 7 -5 16 -9 39 -10 50 -1 20 1 21 22 7
18 -12 26 -13 38 -3 8 6 24 9 37 5 16 -4 19 -3 9 3 -10 7 -11 14 -2 31 13 24
26 29 17 6z m-3934 -4 c3 -1 5 -7 4 -13 -4 -29 -18 -38 -51 -34 -44 6 -55 13
-49 31 6 15 37 23 69 19 11 -1 23 -3 27 -3z m3668 -27 c0 -8 -4 -12 -10 -9 -5
3 -10 13 -10 21 0 8 5 12 10 9 6 -3 10 -13 10 -21z m-755 -4 c-3 -5 -2 -10 4
-10 5 0 12 6 14 13 4 9 6 9 6 0 1 -15 -16 -26 -29 -18 -10 6 -5 25 6 25 3 0 2
-4 -1 -10z m-2831 -35 c-4 -8 -7 -15 -9 -15 -2 0 -5 7 -9 15 -3 9 0 15 9 15 9
0 12 -6 9 -15z m1496 6 c0 -5 -7 -14 -15 -21 -12 -10 -15 -10 -15 2 0 8 3 18
7 21 9 10 23 9 23 -2z m2170 -1 c0 -5 -4 -10 -10 -10 -5 0 -10 5 -10 10 0 6 5
10 10 10 6 0 10 -4 10 -10z m51 -6 c12 -14 11 -16 -5 -13 -11 2 -21 10 -24 17
-5 17 13 15 29 -4z m-4131 -4 c11 -8 7 -9 -15 -4 -37 8 -45 14 -19 14 10 0 26
-5 34 -10z m3680 -25 c6 -8 17 -13 23 -12 7 1 12 -5 12 -13 0 -8 5 -18 10 -22
6 -4 -9 -8 -32 -8 -36 0 -41 2 -36 20 3 11 0 20 -6 20 -6 0 -11 7 -11 15 0 19
24 19 40 0z m100 -20 c0 -23 -5 -35 -14 -35 -20 0 -28 28 -13 50 18 29 27 24
27 -15z m40 0 c-8 -9 -7 -15 2 -18 9 -4 7 -6 -4 -6 -22 -1 -28 10 -21 37 4 18
8 20 19 11 10 -8 11 -15 4 -24z m210 14 c0 -5 -4 -9 -10 -9 -5 0 -10 7 -10 16
0 8 5 12 10 9 6 -3 10 -10 10 -16z m53 -7 c-3 -13 -13 -22 -24 -22 -26 0 -24
23 4 36 28 13 27 13 20 -14z m-906 12 c-3 -3 -12 -4 -19 -1 -8 3 -5 6 6 6 11
1 17 -2 13 -5z m-3643 -20 c3 -8 2 -12 -4 -9 -6 3 -10 10 -10 16 0 14 7 11 14
-7z m4450 1 c-4 -8 -8 -15 -10 -15 -2 0 -4 7 -4 15 0 8 4 15 10 15 5 0 7 -7 4
-15z m-766 -19 c15 -15 15 -17 -3 -33 -18 -17 -18 -17 -4 1 12 18 12 19 -2 14
-9 -4 -22 -1 -29 5 -10 9 -11 9 -6 0 4 -7 4 -18 1 -24 -10 -15 -48 28 -41 46
7 19 62 13 84 -9z m-4551 -32 c-3 -3 -12 -4 -19 -1 -8 3 -5 6 6 6 11 1 17 -2
13 -5z m1697 -37 c6 3 6 0 -1 -7 -10 -11 -20 -10 -55 5 -64 28 -71 39 -9 16
30 -11 59 -18 65 -14z m3116 23 c-8 -5 -31 -9 -50 -8 l-35 1 40 7 c59 11 61
11 45 0z m-4733 -6 c-3 -3 -12 -4 -19 -1 -8 3 -5 6 6 6 11 1 17 -2 13 -5z
m2562 -41 l33 -47 -18 -30 c-17 -30 -17 -31 2 -16 10 8 22 19 26 24 3 5 20 4
40 -4 38 -15 187 -100 193 -111 3 -4 -17 -14 -43 -22 -27 -9 -56 -19 -65 -23
-12 -4 -17 -1 -17 10 0 28 -42 18 -91 -24 -46 -38 -99 -59 -99 -38 0 6 -10 8
-24 4 -15 -4 -31 1 -46 14 -14 12 -36 19 -54 18 l-31 -1 33 -4 c17 -2 32 -8
32 -13 0 -5 -16 -6 -35 -3 -23 4 -35 2 -35 -6 0 -6 5 -11 12 -11 6 0 9 -2 6
-5 -2 -3 -30 2 -62 10 -32 8 -62 13 -66 10 -5 -3 -19 8 -31 24 -14 19 -34 32
-58 36 -20 4 -44 13 -53 22 -12 11 -21 12 -35 4 -19 -9 -69 -9 -79 1 -2 3 10
11 28 18 18 8 52 27 76 42 23 16 58 36 76 43 34 14 36 14 67 -17 30 -30 31
-31 24 -8 -4 14 -12 27 -16 28 -5 2 -9 10 -9 18 0 22 37 91 52 97 7 3 63 6
124 6 l110 1 33 -47z m1886 37 c3 -5 1 -10 -4 -10 -6 0 -11 5 -11 10 0 6 2 10
4 10 3 0 8 -4 11 -10z m-4258 -6 c-3 -3 -12 -4 -19 -1 -8 3 -5 6 6 6 11 1 17
-2 13 -5z m4060 0 c-3 -3 -12 -4 -19 -1 -8 3 -5 6 6 6 11 1 17 -2 13 -5z
m-987 -11 c-8 -3 -20 -10 -26 -15 -7 -5 -14 -3 -17 5 -4 10 4 14 26 14 18 1
25 -2 17 -4z m973 -30 c-7 -2 -21 -2 -30 0 -10 3 -4 5 12 5 17 0 24 -2 18 -5z
m174 -9 c-3 -3 -12 -4 -19 -1 -8 3 -5 6 6 6 11 1 17 -2 13 -5z m-2843 -17 c20
-15 11 -51 -11 -43 -8 3 -31 6 -51 7 -35 0 -36 1 -12 11 15 6 20 12 12 15 -6
3 -10 9 -6 14 8 13 47 11 68 -4z m2744 6 c-16 -2 -40 -2 -55 0 -16 2 -3 4 27
4 30 0 43 -2 28 -4z m-962 -14 c11 -18 -8 -28 -69 -35 -48 -6 -57 -4 -57 9 0
9 8 21 18 26 23 14 99 14 108 0z m-1497 -158 c61 -61 11 -186 -65 -167 -57 15
-68 115 -17 162 31 29 57 30 82 5z m1208 -3 c42 -47 33 -131 -16 -158 -31 -16
-48 -12 -76 17 -35 39 -35 100 1 137 33 32 64 33 91 4z m-244 -80 c36 -18 46
-40 47 -92 0 -64 -19 -86 -75 -86 -51 0 -74 22 -85 80 -6 33 -4 45 13 66 31
40 65 51 100 32z m325 -14 c-7 -15 -14 -21 -16 -15 -2 7 2 18 8 26 18 22 21
18 8 -11z m-1040 -4 c59 -55 21 -170 -57 -170 -11 0 -33 12 -50 26 -64 53 -28
164 54 164 17 0 41 -9 53 -20z m3139 14 c-3 -3 -12 -4 -19 -1 -8 3 -5 6 6 6
11 1 17 -2 13 -5z m-423 -30 c9 -24 2 -26 -12 -4 -7 11 -8 20 -3 20 5 0 12 -7
15 -16z m316 -14 c-9 -16 -8 -20 5 -20 13 0 19 11 17 31 -1 3 10 4 23 1 27 -5
36 -42 10 -42 -21 0 -19 -46 1 -58 13 -7 5 -11 -31 -16 -26 -4 -49 -5 -53 -2
-3 3 2 6 12 6 10 0 14 5 10 11 -4 8 0 9 15 4 16 -5 20 -3 15 9 -3 8 -10 16
-15 16 -5 0 -9 3 -8 7 0 3 -6 10 -15 15 -9 5 -16 18 -16 29 0 11 4 18 9 14 5
-3 12 -1 16 5 11 19 16 10 5 -10z m120 10 c0 -5 -8 -10 -17 -10 -15 0 -16 2
-3 10 19 12 20 12 20 0z m-2136 -22 c-34 -59 -47 -70 -80 -66 -27 3 -34 0 -38
-17 -3 -14 -4 -13 -3 5 1 17 8 25 22 26 11 1 25 2 32 3 6 1 24 15 40 31 30 32
39 38 27 18z m1646 0 c0 -6 5 -6 14 1 10 8 16 8 24 -2 9 -10 6 -17 -9 -28 -12
-8 -28 -19 -37 -26 -26 -18 -10 -23 30 -10 39 14 72 37 63 45 -5 5 41 32 56
32 13 0 11 -44 -3 -58 -9 -9 -9 -15 -1 -23 8 -8 8 -20 3 -35 -7 -18 -5 -24 8
-27 9 -3 -48 -5 -128 -5 l-146 -1 1 24 c1 14 10 34 20 45 18 20 18 20 -11 21
-29 0 -29 0 -5 10 14 5 30 18 37 27 13 19 84 27 84 10z m-762 -24 c-11 -23
-13 -24 -19 -7 -5 16 2 24 28 32 2 1 -3 -11 -9 -25z m652 11 c0 -8 -4 -15 -10
-15 -5 0 -10 7 -10 15 0 8 5 15 10 15 6 0 10 -7 10 -15z m702 -25 c4 -28 2
-33 -14 -36 -19 -2 -22 5 -12 30 7 18 23 22 26 6z m-2067 -20 c3 -6 -1 -7 -9
-4 -18 7 -21 14 -7 14 6 0 13 -4 16 -10z m682 -12 c-3 -8 -6 -5 -6 6 -1 11 2
17 5 13 3 -3 4 -12 1 -19z m243 -3 c0 -8 -7 -15 -16 -15 -14 0 -14 3 -4 15 7
8 14 15 16 15 2 0 4 -7 4 -15z m34 0 c3 -9 0 -15 -8 -15 -7 0 -13 7 -13 15 0
8 4 15 8 15 4 0 9 -7 13 -15z m-4367 -17 c-3 -8 -6 -5 -6 6 -1 11 2 17 5 13 3
-3 4 -12 1 -19z m4448 2 c3 -5 -1 -10 -10 -10 -9 0 -13 5 -10 10 3 6 8 10 10
10 2 0 7 -4 10 -10z m-1614 -27 c13 -17 13 -17 -6 -3 -11 8 -22 16 -24 17 -2
2 0 3 6 3 6 0 17 -8 24 -17z m152 -7 c-22 -30 -36 -33 -88 -25 l-40 6 46 2
c30 0 55 8 70 21 31 26 34 25 12 -4z m2379 -9 c-12 -6 -22 -13 -22 -17 0 -18
-33 -18 -117 0 -95 20 -96 19 60 25 38 2 71 6 74 9 3 3 11 3 16 -1 6 -4 2 -11
-11 -16z m53 13 c-3 -5 -11 -10 -16 -10 -6 0 -7 5 -4 10 3 6 11 10 16 10 6 0
7 -4 4 -10z m60 -9 c8 -26 -15 -61 -39 -61 -17 0 -17 2 -2 24 9 14 13 32 10
40 -4 10 -1 16 9 16 9 0 18 -9 22 -19z m295 -12 c0 -5 -4 -9 -10 -9 -5 0 -10
7 -10 16 0 8 5 12 10 9 6 -3 10 -10 10 -16z m-1284 -2 c5 -4 2 -12 -5 -16 -11
-7 -8 -13 13 -26 14 -9 23 -21 20 -26 -3 -5 0 -9 7 -9 7 0 10 -2 8 -5 -9 -9
-49 8 -42 18 4 6 0 8 -10 4 -16 -6 -34 8 -20 16 5 2 3 3 -3 1 -13 -3 -120 38
-132 51 -4 4 30 5 75 4 45 -2 85 -8 89 -12z m-283 -4 c-18 -2 -48 -2 -65 0
-18 2 -4 4 32 4 36 0 50 -2 33 -4z m-233 -13 c0 -5 -6 -10 -12 -10 -7 0 -31
-2 -53 -5 l-40 -5 30 14 c35 17 75 20 75 6z m570 -10 c0 -5 -8 -10 -17 -10
-15 0 -16 2 -3 10 19 12 20 12 20 0z m424 -6 c12 -4 13 -10 4 -23 -10 -17 -14
-17 -64 -1 -29 9 -56 19 -60 23 -9 8 98 9 120 1z m-184 -14 c0 -5 -4 -10 -9
-10 -6 0 -13 5 -16 10 -3 6 1 10 9 10 9 0 16 -4 16 -10z m528 -18 c2 -7 -5
-12 -15 -11 -12 0 -14 2 -4 6 11 5 11 7 0 15 -12 8 -12 9 0 6 8 -3 17 -10 19
-16z m-1300 -24 c6 -18 27 -103 47 -188 20 -85 43 -176 51 -202 18 -60 18 -62
-5 -41 -16 16 -41 109 -45 170 0 11 -4 19 -8 16 -5 -2 -8 11 -8 29 0 19 -5 39
-11 45 -5 5 -11 29 -12 51 -1 22 -6 40 -12 39 -5 -1 -9 7 -8 18 2 11 0 31 -3
44 -4 20 -7 22 -15 10 -7 -11 -9 -11 -9 4 0 14 -5 16 -25 11 -15 -4 -25 -2
-25 4 0 11 21 19 57 21 16 1 24 -7 31 -31z m1225 9 c13 -5 16 -11 9 -23 -13
-24 16 -58 35 -42 11 9 13 6 9 -17 -5 -27 -4 -27 30 -22 28 5 35 3 30 -8 -2
-7 0 -16 7 -19 7 -2 5 -5 -5 -5 -9 -1 -19 5 -22 12 -3 9 -8 8 -15 -4 -10 -15
-14 -15 -45 -1 -19 9 -32 20 -29 25 4 6 1 7 -7 2 -17 -10 -60 41 -60 72 0 15
4 22 11 18 6 -4 13 3 16 15 3 12 9 18 12 13 3 -5 14 -12 24 -16z m132 13 c3
-5 2 -10 -4 -10 -5 0 -13 5 -16 10 -3 6 -2 10 4 10 5 0 13 -4 16 -10z m-754
-37 c-8 -15 -10 -15 -11 -2 0 17 10 32 18 25 2 -3 -1 -13 -7 -23z m324 12 l30
-14 -35 6 c-19 3 -44 10 -55 14 -18 7 -17 8 5 8 14 0 39 -6 55 -14z m-4551 -7
c-3 -4 -14 -8 -25 -8 -11 0 -18 4 -14 9 3 6 14 9 25 8 10 -1 16 -5 14 -9z
m3735 -32 c6 -25 11 -62 10 -83 -1 -36 -2 -35 -14 17 -7 30 -16 67 -20 83 -4
16 -3 27 3 27 5 0 15 -20 21 -44z m455 28 c3 -8 2 -12 -4 -9 -6 3 -10 10 -10
16 0 14 7 11 14 -7z m332 -13 c-4 -5 -1 -11 6 -13 7 -3 2 -7 -10 -10 -21 -6
-31 10 -15 25 10 10 25 8 19 -2z m84 -1 c0 -5 -2 -10 -4 -10 -3 0 -8 5 -11 10
-3 6 -1 10 4 10 6 0 11 -4 11 -10z m-4685 -10 c-3 -5 -11 -10 -16 -10 -6 0 -7
5 -4 10 3 6 11 10 16 10 6 0 7 -4 4 -10z m1442 -19 c14 14 63 -31 63 -56 0
-14 -3 -14 -30 0 -16 9 -30 21 -30 27 0 6 -3 9 -6 5 -4 -3 4 -22 16 -41 12
-20 18 -36 13 -36 -4 0 -23 28 -42 63 -23 43 -27 57 -14 45 14 -13 22 -15 30
-7z m1562 -39 c-25 -36 -36 -46 -45 -38 -7 6 -10 14 -7 19 2 4 -1 7 -6 7 -24
0 -9 26 22 39 17 8 35 14 39 15 3 0 10 4 14 9 4 4 9 5 12 2 3 -2 -10 -26 -29
-53z m1841 38 c8 -5 11 -10 5 -10 -5 0 -17 5 -25 10 -8 5 -10 10 -5 10 6 0 17
-5 25 -10z m-160 -96 c0 -10 -5 -9 -20 3 -11 10 -20 26 -20 37 0 18 2 17 20
-4 11 -13 20 -29 20 -36z m92 38 c-11 -10 -20 -26 -19 -36 1 -11 -3 -21 -8
-23 -6 -2 -10 11 -10 29 0 18 6 33 12 33 6 0 15 3 19 8 4 4 12 7 17 7 6 0 1
-8 -11 -18z m-5462 3 c0 -2 -10 -9 -22 -15 -22 -11 -22 -10 -4 4 21 17 26 19
26 11z m5488 -37 c-2 -7 7 -14 20 -16 21 -3 26 -12 23 -40 -2 -9 4 -12 16 -8
10 3 25 1 33 -4 10 -6 11 -10 3 -10 -7 0 -13 -7 -13 -16 0 -9 5 -12 13 -8 8 6
8 3 -1 -9 -13 -15 -15 -15 -30 0 -16 16 -17 15 -20 -5 -4 -29 -48 -31 -57 -2
-11 33 -27 23 -20 -12 5 -29 4 -31 -7 -17 -8 10 -29 24 -48 32 -47 21 -65 38
-72 65 -6 22 6 31 17 12 9 -14 45 -12 45 3 0 7 3 8 8 2 16 -23 48 -14 59 15
11 29 36 43 31 18z m-183 -28 c3 -5 1 -10 -4 -10 -6 0 -11 5 -11 10 0 6 2 10
4 10 3 0 8 -4 11 -10z m-1678 -37 c-8 -15 -21 -56 -30 -90 -17 -67 -43 -119
-64 -127 -23 -9 -14 22 12 41 17 12 27 31 31 58 5 40 54 158 62 151 2 -2 -3
-17 -11 -33z m1231 6 c-16 -10 7 -20 28 -12 12 4 15 3 10 -5 -17 -28 -57 -3
-48 30 3 15 7 16 13 7 4 -8 3 -16 -3 -20z m949 -17 c9 -6 7 -11 -7 -20 -12 -7
-20 -8 -20 -2 0 5 6 10 13 10 8 0 7 4 -3 10 -8 5 -10 10 -5 10 6 0 15 -4 22
-8z m-5507 -11 c0 -5 -7 -12 -16 -15 -14 -5 -15 -4 -4 9 14 17 20 19 20 6z
m-116 -10 c3 -4 20 -11 38 -15 l33 -7 -25 -13 c-22 -12 -27 -12 -52 8 -15 11
-27 24 -27 29 -1 10 27 9 33 -2z m4726 -1 c0 -5 -5 -10 -11 -10 -5 0 -7 5 -4
10 3 6 8 10 11 10 2 0 4 -4 4 -10z m870 -40 c0 -5 -5 -10 -11 -10 -5 0 -7 5
-4 10 3 6 8 10 11 10 2 0 4 -4 4 -10z m-670 -10 c0 -5 -5 -10 -11 -10 -5 0 -7
5 -4 10 3 6 8 10 11 10 2 0 4 -4 4 -10z m-165 -20 c10 -11 16 -20 13 -20 -3 0
-13 9 -23 20 -10 11 -16 20 -13 20 3 0 13 -9 23 -20z m-3685 -5 c0 -3 -5 -13
-10 -23 -22 -37 -90 -244 -96 -292 -7 -51 -12 -58 -31 -39 -15 15 -49 -4 -58
-31 -9 -29 -17 -25 -48 25 -16 25 -30 45 -32 45 -3 0 9 -28 25 -62 29 -60 30
-69 30 -197 0 -154 -3 -160 -83 -161 l-49 0 32 27 32 26 -24 20 c-16 13 -18
17 -5 13 11 -3 17 0 17 10 0 11 6 13 20 9 15 -5 20 -2 20 12 0 26 -12 38 -35
38 -14 0 -20 -7 -19 -23 0 -12 -4 -21 -10 -19 -20 7 -16 32 9 61 14 16 25 26
25 23 0 -4 9 1 20 10 25 21 25 39 3 52 -16 9 -16 10 -1 11 15 0 15 3 1 30 -9
19 -12 41 -8 57 5 21 3 24 -10 19 -9 -3 -13 -2 -10 4 3 6 -2 10 -13 10 -13 0
-18 6 -17 23 1 12 0 27 -4 32 -3 6 -6 15 -6 20 -1 16 -50 117 -78 163 -15 23
-27 46 -27 52 0 24 23 6 56 -46 24 -38 39 -52 47 -46 7 4 32 15 57 22 50 15
178 78 225 109 28 20 55 27 55 16z m3462 -30 c2 -11 10 -19 18 -17 11 3 11 0
0 -12 -24 -30 -40 -19 -40 26 0 42 14 44 22 3z m348 23 c0 -6 -3 -8 -6 -5 -4
3 -16 2 -28 -4 -20 -10 -20 -10 -2 5 24 19 36 20 36 4z m171 -23 c9 -19 12
-35 8 -35 -5 0 -14 11 -20 24 -8 16 -17 22 -27 18 -15 -5 -15 -4 -2 11 20 22
23 21 41 -18z m489 31 c0 -2 -8 -10 -17 -17 -16 -13 -17 -12 -4 4 13 16 21 21
21 13z m-446 -14 c3 -5 -1 -9 -9 -9 -8 0 -15 4 -15 9 0 4 4 8 9 8 6 0 12 -4
15 -8z m-567 -110 c45 -17 97 -34 117 -37 20 -4 36 -14 38 -23 2 -9 18 17 36
57 28 61 36 72 55 69 20 -3 23 -10 29 -98 10 -132 9 -229 -1 -270 -5 -21 -10
-27 -10 -15 -2 18 -3 18 -15 -5 -8 -14 -12 -28 -10 -32 2 -3 0 -9 -6 -13 -17
-10 -11 18 10 53 11 18 20 47 19 65 l0 32 -14 -30 c-8 -16 -16 -42 -20 -57 -3
-16 -10 -28 -17 -28 -6 0 -35 24 -65 54 -47 47 -53 58 -48 82 l6 29 -17 -30
c-9 -16 -26 -40 -37 -52 -19 -21 -21 -21 -33 -5 -12 15 -14 14 -15 -13 l-1
-30 -7 30 c-7 34 -40 45 -61 20 -10 -12 -10 -15 4 -15 9 0 16 -5 16 -10 0 -7
-6 -7 -20 0 -21 11 -27 30 -10 30 6 0 10 11 10 25 0 29 -71 249 -82 253 -4 2
-8 12 -8 23 0 18 2 18 38 -4 20 -13 74 -38 119 -55z m-2467 48 c6 -11 8 -20 6
-20 -3 0 -10 9 -16 20 -6 11 -8 20 -6 20 3 0 10 -9 16 -20z m3274 -42 c-3 -5
-7 -8 -8 -6 -1 2 -10 17 -20 33 l-19 30 26 -24 c15 -13 24 -28 21 -33z m-3212
-8 c6 0 9 -3 6 -6 -12 -12 -48 17 -48 39 1 20 2 20 16 -5 8 -16 20 -28 26 -28z
m44 -18 c-12 -11 -17 7 -9 34 l8 29 3 -28 c2 -16 1 -31 -2 -35z m1103 17 c-16
-10 -23 -4 -14 10 3 6 11 8 17 5 6 -4 5 -9 -3 -15z m1100 -5 c26 -33 27 -44 1
-37 -21 6 -53 47 -43 57 11 11 21 6 42 -20z m485 -49 c5 -20 4 -27 -3 -20 -5
6 -12 30 -15 55 -6 46 2 30 18 -35z m-1574 25 c0 -5 -5 -10 -11 -10 -5 0 -7 5
-4 10 3 6 8 10 11 10 2 0 4 -4 4 -10z m1580 -150 c0 -5 -8 -10 -17 -10 -15 0
-16 2 -3 10 19 12 20 12 20 0z m-4160 -34 c0 -2 -7 -7 -16 -10 -8 -3 -12 -2
-9 4 6 10 25 14 25 6z m3917 -18 c-2 -7 19 -37 47 -67 28 -29 50 -60 50 -68
-2 -10 1 -11 11 -3 22 19 24 -12 3 -54 -24 -47 -19 -78 22 -160 17 -33 28 -61
26 -63 -2 -2 -36 7 -76 19 -53 17 -75 29 -83 46 -8 17 -7 25 5 35 17 13 33 77
18 77 -4 0 -10 8 -13 18 -3 14 -6 12 -14 -8 -8 -20 -7 -26 6 -32 13 -5 12 -7
-5 -7 -16 -1 -22 5 -22 22 0 12 -3 39 -5 59 -5 35 -4 36 14 25 10 -6 20 -19
20 -27 1 -11 3 -10 6 3 2 9 11 17 19 17 8 0 14 -8 15 -17 1 -12 4 -9 8 7 9 30
-18 54 -53 48 -22 -4 -23 -2 -22 56 1 56 9 86 22 86 3 0 4 -6 1 -12z m-3917
-27 c0 -4 -3 -10 -6 -14 -8 -7 -33 16 -28 25 6 9 34 -1 34 -11z m213 -1 c-3
-12 -8 -19 -11 -16 -5 6 5 36 12 36 2 0 2 -9 -1 -20z m3584 -2 c-3 -8 -6 -5
-6 6 -1 11 2 17 5 13 3 -3 4 -12 1 -19z m-3542 3 c3 -5 1 -12 -5 -16 -5 -3
-10 1 -10 9 0 18 6 21 15 7z m113 2 c-10 -2 -26 -2 -35 0 -10 3 -2 5 17 5 19
0 27 -2 18 -5z m2086 -77 c2 -56 -11 -64 -18 -10 -3 16 -7 45 -11 64 -6 33 -5
34 11 18 11 -11 17 -35 18 -72z m1255 62 c43 -25 81 -66 81 -85 0 -8 -4 -11
-10 -8 -5 3 -10 12 -10 20 0 19 -58 65 -91 72 -16 3 -29 9 -29 14 0 15 21 10
59 -13z m-3458 -55 c-12 -20 -14 -14 -5 12 4 9 9 14 11 11 3 -2 0 -13 -6 -23z
m3469 -9 c0 -2 -9 0 -20 6 -11 6 -20 13 -20 16 0 2 9 0 20 -6 11 -6 20 -13 20
-16z m-2233 -95 c-18 -38 -22 -69 -14 -149 2 -22 -2 -25 -28 -26 -35 0 -58
-11 -50 -23 2 -5 -9 -11 -25 -15 -17 -3 -41 -17 -54 -31 -13 -14 -32 -25 -42
-24 -11 0 -14 3 -7 5 15 7 6 32 -21 63 -20 23 -20 24 -2 35 74 45 116 77 179
137 39 37 75 68 78 69 4 0 -3 -18 -14 -41z m2620 27 c-3 -8 3 -39 13 -69 11
-30 24 -79 29 -108 18 -102 41 -193 51 -203 5 -5 10 -15 10 -20 0 -6 -5 -3
-11 7 -16 27 -26 20 -21 -15 4 -30 3 -31 -11 -18 -31 30 -57 125 -75 280 -5
36 -11 54 -20 53 -18 -4 -14 25 10 68 22 39 35 52 25 25z m-600 -18 c-3 -8 -6
-5 -6 6 -1 11 2 17 5 13 3 -3 4 -12 1 -19z m-3571 -40 c-2 -17 -8 -33 -14 -37
-6 -4 -11 -29 -12 -56 0 -47 -2 -73 -9 -150 -1 -16 -5 -24 -8 -16 -5 11 -7 11
-15 0 -7 -10 -8 -8 -3 8 3 12 1 24 -5 28 -5 3 -10 14 -9 23 0 14 2 13 9 -3 l9
-20 2 20 c6 51 3 111 -6 117 -6 5 -5 8 3 8 7 0 12 13 12 31 0 34 29 91 42 83
4 -3 6 -19 4 -36z m2662 -9 c60 -53 163 -119 188 -119 20 0 18 -8 -11 -42 -26
-30 -33 -58 -15 -58 6 0 10 -4 10 -10 0 -14 -16 -12 -32 4 -20 20 -79 48 -86
42 -3 -4 -11 7 -18 23 -11 27 -17 30 -53 28 -51 -2 -56 4 -36 42 15 30 12 65
-12 127 -9 25 7 15 65 -37z m332 -59 c0 -5 -2 -10 -4 -10 -3 0 -8 5 -11 10 -3
6 -1 10 4 10 6 0 11 -4 11 -10z m-1839 -70 c2 -22 4 -33 11 -50 9 -21 48 -225
48 -249 0 -23 -1 -24 -24 -15 -8 3 -13 11 -10 19 3 7 -1 28 -9 46 l-14 34 1
-39 c1 -39 1 -39 -74 -77 -65 -32 -77 -35 -87 -23 -7 10 -13 12 -18 4 -4 -7
-14 -1 -26 15 -11 13 -17 30 -13 37 5 8 2 9 -9 5 -10 -3 -17 -2 -17 4 0 6 9
13 19 16 17 4 18 8 8 24 -9 15 -9 23 1 39 6 11 12 28 12 38 0 27 61 142 71
136 13 -8 11 10 -3 24 -9 9 -7 12 10 12 13 0 22 6 22 15 0 8 7 15 15 15 8 0
15 6 16 13 0 10 2 10 6 0 8 -22 26 -14 20 10 -5 19 -3 18 18 -8 14 -16 25 -37
26 -45z m9 66 c0 -11 -19 -15 -25 -6 -3 5 1 10 9 10 9 0 16 -2 16 -4z m2980
-16 c0 -5 -4 -10 -10 -10 -5 0 -10 5 -10 10 0 6 5 10 10 10 6 0 10 -4 10 -10z
m-1888 -54 c-2 -18 1 -25 8 -21 6 3 8 11 5 16 -13 20 23 8 45 -16 13 -14 18
-25 11 -25 -6 0 -14 7 -17 15 -4 8 -11 15 -18 15 -6 0 8 -18 32 -39 34 -32 43
-46 40 -68 -2 -23 -10 -29 -45 -39 -38 -11 -45 -11 -70 9 -21 16 -24 17 -14 3
13 -15 13 -19 0 -27 -19 -12 -33 -6 -38 16 -7 36 -33 65 -60 66 -14 1 -37 5
-51 9 -19 6 -12 8 31 9 48 1 60 -3 83 -25 14 -15 26 -22 26 -17 0 6 -7 16 -15
23 -8 7 -16 29 -16 49 -2 30 -3 31 -6 9 -4 -28 -5 -28 -83 -28 -70 0 -81 3
-94 22 -11 16 -13 25 -4 35 12 15 54 17 63 3 4 -7 13 -7 26 0 11 6 17 15 14
20 -6 10 32 16 100 15 49 -1 50 -2 47 -29z m223 -6 c-21 -22 -41 -38 -43 -36
-4 5 69 76 77 76 3 0 -12 -18 -34 -40z m-2459 -27 c-11 -11 -17 4 -9 23 7 18
8 18 11 1 2 -10 1 -21 -2 -24z m2364 7 c0 -5 -5 -10 -11 -10 -5 0 -7 5 -4 10
3 6 8 10 11 10 2 0 4 -4 4 -10z m85 -30 c-10 -11 -23 -20 -28 -20 -6 0 -2 9 8
20 10 11 23 20 28 20 6 0 2 -9 -8 -20z m156 10 c25 -14 24 -28 -3 -57 -25 -27
-48 -30 -43 -5 16 81 15 78 46 62z m-203 -25 c-3 -3 -9 2 -12 12 -6 14 -5 15
5 6 7 -7 10 -15 7 -18z m-2281 -50 c-10 -73 -57 -143 -57 -85 0 10 -7 23 -17
28 -11 7 -14 15 -8 28 5 11 9 24 10 29 1 18 16 35 25 30 5 -3 11 -1 15 5 3 5
13 10 22 10 13 0 15 -8 10 -45z m3992 1 c17 -35 36 -129 46 -221 11 -110 51
-328 63 -352 18 -32 15 -39 -18 -53 -36 -15 -63 -7 -58 17 2 10 -1 23 -8 28
-14 12 -64 203 -69 263 -2 23 0 42 5 42 4 0 2 26 -5 57 -7 32 -11 61 -9 65 3
5 0 8 -5 8 -6 0 -11 9 -11 21 0 11 -4 17 -10 14 -5 -3 -10 1 -10 10 0 9 -9 33
-20 54 -23 47 -12 68 40 74 50 5 53 4 69 -27z m-1382 -8 c49 -27 63 -45 63
-80 0 -23 -4 -28 -23 -28 -13 0 -34 11 -46 24 -13 13 -34 27 -47 30 -26 7 -30
26 -14 57 13 24 20 24 67 -3z m-2510 -20 c-3 -7 -5 -2 -5 12 0 14 2 19 5 13 2
-7 2 -19 0 -25z m1034 -111 c-8 -8 -11 -2 -11 20 0 17 -5 33 -11 35 -8 3 -5
15 7 38 l19 35 3 -59 c2 -32 -2 -64 -7 -69z m1628 99 c8 -10 10 -31 5 -63 -11
-78 -23 -96 -23 -37 -1 28 -4 66 -7 83 -7 33 5 41 25 17z m-2839 -36 c0 -5 -2
-10 -4 -10 -3 0 -8 5 -11 10 -3 6 -1 10 4 10 6 0 11 -4 11 -10z m2186 -50 c1
-17 -1 -30 -6 -30 -11 0 -22 48 -14 61 9 15 18 2 20 -31z m2024 20 c0 -5 -4
-10 -10 -10 -5 0 -10 5 -10 10 0 6 5 10 10 10 6 0 10 -4 10 -10z m-2770 -16
c0 -8 -4 -12 -10 -9 -5 3 -10 10 -10 16 0 5 5 9 10 9 6 0 10 -7 10 -16z m793
1 c-3 -9 -8 -14 -10 -11 -3 3 -2 9 2 15 9 16 15 13 8 -4z m-2216 -12 c5 -13
-25 -26 -38 -17 -6 3 -5 11 2 20 13 16 31 14 36 -3z m2663 -9 c44 -25 41 -24
-30 1 -26 10 -37 10 -42 2 -5 -8 -8 -6 -8 6 0 24 26 21 80 -9z m1501 -21 c-8
-15 -10 -15 -11 -2 0 17 10 32 18 25 2 -3 -1 -13 -7 -23z m-2734 -5 c-3 -8 -6
-5 -6 6 -1 11 2 17 5 13 3 -3 4 -12 1 -19z m893 1 c7 -12 8 -25 2 -32 -5 -7
-17 -34 -26 -61 -21 -55 -46 -70 -136 -80 -62 -6 -59 -4 21 18 60 17 52 6 106
136 9 22 17 40 19 40 2 0 8 -9 14 -21z m-2290 -14 c0 -8 -4 -15 -10 -15 -5 0
-10 7 -10 15 0 8 5 15 10 15 6 0 10 -7 10 -15z m2150 11 c0 -2 -9 -6 -20 -9
-11 -3 -18 -1 -14 4 5 9 34 13 34 5z m60 -13 c0 -10 -6 -25 -13 -33 -15 -20
-83 -68 -74 -53 4 7 3 14 -3 18 -15 9 -2 25 15 18 20 -7 47 16 40 35 -3 9 0
12 9 9 10 -4 13 -1 9 9 -3 7 0 14 6 14 6 0 11 -8 11 -17z m-2253 -78 c1 -41
-3 -77 -8 -80 -5 -4 -9 -24 -9 -45 0 -21 -6 -45 -14 -52 -7 -8 -17 -47 -21
-86 -5 -55 -12 -76 -27 -86 -22 -16 -57 -10 -75 12 -14 17 -7 63 11 74 6 4 10
26 10 50 -1 24 1 36 4 28 4 -12 28 70 34 117 1 7 7 14 14 17 7 3 18 32 25 65
10 52 15 61 33 61 19 0 21 -6 23 -75z m2193 55 c0 -5 -5 -10 -11 -10 -5 0 -7
5 -4 10 3 6 8 10 11 10 2 0 4 -4 4 -10z m-1150 -14 c0 -3 -4 -8 -10 -11 -5 -3
-10 -1 -10 4 0 6 5 11 10 11 6 0 10 -2 10 -4z m84 -41 c-4 -8 -10 -12 -15 -9
-11 6 -2 24 11 24 5 0 7 -7 4 -15z m944 -22 c-10 -2 -26 -2 -35 0 -10 3 -2 5
17 5 19 0 27 -2 18 -5z m2106 -43 c4 -31 2 -40 -4 -30 -9 14 -14 88 -6 79 3
-2 7 -25 10 -49z m-3014 -18 c0 -11 -7 -18 -20 -18 -11 0 -18 5 -16 11 2 5 9
9 15 8 6 -2 11 2 11 7 0 6 2 10 5 10 3 0 5 -8 5 -18z m2987 -4 c-3 -8 -6 -5
-6 6 -1 11 2 17 5 13 3 -3 4 -12 1 -19z m-3173 -13 c-5 -11 -9 -12 -19 -2 -9
8 -10 14 -2 19 16 9 27 0 21 -17z m91 -5 c-3 -5 -12 -10 -18 -10 -7 0 -6 4 3
10 19 12 23 12 15 0z m15 -45 c-7 -9 -15 -13 -17 -11 -7 7 7 26 19 26 6 0 6
-6 -2 -15z m3127 -27 c-3 -8 -6 -5 -6 6 -1 11 2 17 5 13 3 -3 4 -12 1 -19z
m-3297 2 c8 -5 11 -10 5 -10 -5 0 -17 5 -25 10 -8 5 -10 10 -5 10 6 0 17 -5
25 -10z m2230 0 c0 -5 -7 -10 -16 -10 -8 0 -12 5 -9 10 3 6 10 10 16 10 5 0 9
-4 9 -10z m1027 -22 c-3 -8 -6 -5 -6 6 -1 11 2 17 5 13 3 -3 4 -12 1 -19z
m-800 -30 c-3 -7 -5 -2 -5 12 0 14 2 19 5 13 2 -7 2 -19 0 -25z m810 -40 c-3
-7 -5 -2 -5 12 0 14 2 19 5 13 2 -7 2 -19 0 -25z m49 -43 c22 -30 16 -41 -6
-12 -11 14 -19 36 -19 49 1 20 2 21 6 3 3 -11 12 -29 19 -40z m-1019 3 c-3 -8
-6 -5 -6 6 -1 11 2 17 5 13 3 -3 4 -12 1 -19z m-3407 -283 c22 -14 40 -31 40
-38 0 -15 -70 -49 -110 -54 -17 -1 -30 2 -30 7 0 6 7 10 16 10 12 0 15 5 9 23
-15 45 -8 194 12 238 l18 42 3 -102 3 -101 39 -25z m4410 197 c0 -15 -2 -15
-10 -2 -13 20 -13 33 0 25 6 -3 10 -14 10 -23z m-4350 3 c0 -8 -2 -15 -4 -15
-2 0 -6 7 -10 15 -3 8 -1 15 4 15 6 0 10 -7 10 -15z m44 -2 c6 -15 8 -15 16
-3 13 20 12 5 -2 -64 -7 -38 -14 -53 -19 -44 -7 10 -9 10 -9 0 0 -10 -5 -10
-20 -2 -15 8 -20 20 -19 48 1 33 2 34 9 12 l8 -25 1 25 c3 60 22 89 35 53z
m-99 -3 c3 -5 -1 -10 -9 -10 -9 0 -16 5 -16 10 0 6 4 10 9 10 6 0 13 -4 16
-10z m4292 -6 c8 15 13 8 31 -39 26 -68 26 -61 5 -69 -9 -4 -20 -1 -25 6 -6
10 -8 10 -9 -2 -1 -21 -28 81 -28 105 0 20 1 20 8 0 7 -18 8 -18 18 -1z m63
-10 c0 -14 4 -22 10 -19 6 4 8 -9 6 -34 -3 -34 -1 -40 17 -43 26 -4 35 -28 10
-28 -23 0 -43 18 -43 40 0 9 -9 33 -20 55 -15 30 -17 41 -7 47 21 13 27 9 27
-18z m-798 -28 c3 -14 2 -30 -2 -36 -4 -6 -7 5 -8 25 -2 40 4 46 10 11z
m-3342 -54 c0 -7 -4 -11 -9 -8 -5 3 -17 -6 -27 -19 -28 -38 -45 -32 -26 9 11
25 21 33 39 32 12 0 23 -7 23 -14z m4015 -12 c17 -33 21 -70 6 -54 -17 16 -42
84 -31 84 5 0 16 -13 25 -30z m-727 7 c10 4 13 2 8 -5 -8 -14 -42 -16 -50 -3
-8 12 6 23 17 12 5 -5 16 -7 25 -4z m-3424 -39 c16 -26 -19 -61 -46 -47 -13 7
-18 18 -15 30 3 12 0 19 -8 19 -8 0 -16 4 -19 8 -3 5 13 8 36 8 27 -1 45 -7
52 -18z m3456 19 c0 -14 -41 -47 -50 -42 -8 5 -2 14 17 25 31 21 33 21 33 17z
m834 -23 c4 -9 -1 -28 -10 -42 -16 -24 -17 -25 -30 -7 -8 10 -14 29 -14 42 0
18 6 23 24 23 13 0 27 -7 30 -16z m-4175 -23 c-15 -5 -22 6 -14 19 6 9 10 9
16 -1 5 -8 4 -15 -2 -18z m4003 -23 c-2 -10 -6 -18 -7 -18 -1 0 -5 8 -7 18 -3
11 0 19 7 19 7 0 10 -8 7 -19z m85 -30 c-3 -7 -5 -2 -5 12 0 14 2 19 5 13 2
-7 2 -19 0 -25z m-4089 13 c6 -1 12 -10 12 -20 0 -22 -31 -19 -51 5 -9 11 -15
11 -25 3 -11 -9 -14 -8 -14 5 0 12 8 15 33 12 17 -3 38 -5 45 -5z m2182 -1
c-20 -13 -43 -13 -35 0 3 6 16 10 28 10 18 0 19 -2 7 -10z m1862 2 c11 -4 14
-12 9 -20 -6 -9 -12 -8 -26 8 -18 20 -13 24 17 12z m-662 -112 c0 -5 -7 -10
-15 -10 -8 0 -15 5 -15 10 0 6 7 10 15 10 8 0 15 -4 15 -10z m948 -75 c-3 -3
-9 2 -12 12 -6 14 -5 15 5 6 7 -7 10 -15 7 -18z m-4310 -99 c-2 -16 -9 -20
-29 -18 -14 2 -31 -4 -39 -12 -17 -22 -43 -20 -64 3 -19 21 -14 41 10 41 8 0
13 -3 10 -8 -2 -4 7 -13 20 -19 21 -10 26 -9 31 5 4 9 1 18 -6 20 -11 4 -11 6
0 12 8 5 17 2 25 -8 10 -14 11 -12 7 13 l-6 30 22 -19 c12 -11 21 -29 19 -40z
m4065 47 c-7 -2 -21 -2 -30 0 -10 3 -4 5 12 5 17 0 24 -2 18 -5z m-49 -12 c3
-5 -1 -14 -9 -21 -8 -7 -15 -20 -16 -29 0 -11 -3 -10 -11 6 -8 17 -8 26 2 38
14 17 26 19 34 6z m-2319 -27 c11 -17 12 -25 4 -22 -6 2 -16 14 -20 26 -11 29
-5 28 16 -4z m2335 -14 l-11 -21 39 20 c37 19 42 19 71 5 27 -14 30 -19 26
-47 -3 -17 -16 -41 -28 -53 l-23 -23 -13 29 c-7 16 -29 39 -49 51 -20 13 -39
24 -41 26 -2 1 4 12 14 23 22 25 31 19 15 -10z m-4007 -49 c-3 -12 2 -20 16
-24 29 -7 26 -25 -4 -33 -27 -7 -62 2 -52 13 4 3 2 12 -4 19 -7 8 -6 14 2 20
8 4 9 3 5 -4 -4 -7 -1 -12 8 -12 10 0 16 9 16 26 0 14 4 23 9 20 5 -3 7 -14 4
-25z m-43 15 c0 -2 -9 -6 -20 -9 -11 -3 -18 -1 -14 4 5 9 34 13 34 5z m4000
-6 c0 -5 -4 -10 -10 -10 -5 0 -10 5 -10 10 0 6 5 10 10 10 6 0 10 -4 10 -10z
m30 -5 c11 -13 10 -14 -4 -9 -9 3 -16 10 -16 15 0 13 6 11 20 -6z m-10 -41 c0
-16 -31 -34 -58 -34 -24 0 -23 27 2 45 20 15 56 8 56 -11z m-3925 -55 c4 -6 5
-12 2 -15 -7 -7 -37 7 -37 17 0 13 27 11 35 -2z m3843 -3 c-7 -8 -17 -11 -23
-8 -5 2 8 -14 30 -38 44 -46 40 -48 -17 -10 -43 29 -47 43 -15 58 31 15 40 14
25 -2z m-611 -68 c-3 -7 -5 -2 -5 12 0 14 2 19 5 13 2 -7 2 -19 0 -25z m-3165
-25 c24 -21 23 -43 -2 -43 -11 0 -23 -1 -27 -2 -8 -4 -14 33 -8 50 6 16 15 15
37 -5z m3736 -6 c17 -20 -14 -62 -34 -46 -15 12 -19 41 -7 52 10 11 30 8 41
-6z m-2003 -125 c-3 -3 -11 0 -18 7 -9 10 -8 11 6 5 10 -3 15 -9 12 -12z
m-2082 -9 c-7 -2 -21 -2 -30 0 -10 3 -4 5 12 5 17 0 24 -2 18 -5z m4443 -9
c17 -14 17 -15 1 -10 -10 3 -31 6 -45 7 -24 0 -25 1 -7 9 28 12 29 12 51 -6z
m-4416 -74 c11 -8 7 -9 -15 -4 -37 8 -45 14 -19 14 10 0 26 -5 34 -10z m415 0
c-3 -5 -10 -10 -16 -10 -5 0 -9 5 -9 10 0 6 7 10 16 10 8 0 12 -4 9 -10z
m4000 -9 c2 -4 -9 -5 -25 -3 -17 2 -28 8 -25 12 6 9 43 2 50 -9z m-3048 -33
c-3 -7 -5 -2 -5 12 0 14 2 19 5 13 2 -7 2 -19 0 -25z m3148 -6 c-3 -3 -11 0
-18 7 -9 10 -8 11 6 5 10 -3 15 -9 12 -12z m-135 -192 c8 -5 11 -10 5 -10 -5
0 -17 5 -25 10 -8 5 -10 10 -5 10 6 0 17 -5 25 -10z m-4387 -7 c-7 -2 -19 -2
-25 0 -7 3 -2 5 12 5 14 0 19 -2 13 -5z m1011 -199 c3 -8 2 -12 -4 -9 -6 3
-10 10 -10 16 0 14 7 11 14 -7z m2016 -308 c0 -3 -4 -8 -10 -11 -5 -3 -10 -1
-10 4 0 6 5 11 10 11 6 0 10 -2 10 -4z m410 -252 c0 -8 -5 -12 -10 -9 -6 4 -8
11 -5 16 9 14 15 11 15 -7z m15 -94 c-3 -5 -11 -10 -16 -10 -6 0 -7 5 -4 10 3
6 11 10 16 10 6 0 7 -4 4 -10z m-578 -390 c-3 -21 -4 -20 -6 7 0 17 -5 35 -11
38 -5 3 -10 16 -10 28 1 17 4 15 16 -13 8 -19 13 -46 11 -60z m-1697 67 c0 -2
-10 -12 -21 -23 -22 -19 -22 -19 -8 4 12 19 29 30 29 19z m307 -29 c-3 -7 -5
-2 -5 12 0 14 2 19 5 13 2 -7 2 -19 0 -25z m1950 -280 c-3 -7 -5 -2 -5 12 0
14 2 19 5 13 2 -7 2 -19 0 -25z m-2210 -420 c-3 -7 -5 -2 -5 12 0 14 2 19 5
13 2 -7 2 -19 0 -25z m2263 -92 c0 -3 -4 -8 -10 -11 -5 -3 -10 -1 -10 4 0 6 5
11 10 11 6 0 10 -2 10 -4z m0 -41 c0 -8 -4 -15 -10 -15 -5 0 -7 7 -4 15 4 8 8
15 10 15 2 0 4 -7 4 -15z m-2582 -178 c16 -15 22 -32 22 -64 0 -24 -3 -42 -7
-42 -19 3 -33 -2 -33 -12 0 -5 5 -7 12 -3 7 4 8 3 4 -4 -4 -6 -12 -9 -19 -6
-9 3 -11 17 -7 47 4 30 1 51 -11 73 -15 28 -16 31 0 31 9 0 26 -9 39 -20z
m2666 -8 c14 -17 26 -36 26 -44 0 -7 11 -32 24 -56 35 -64 39 -84 21 -103 -15
-14 -15 -16 -1 -16 9 0 16 6 16 13 0 6 14 -13 31 -43 16 -30 34 -56 39 -58 6
-2 10 -7 10 -11 0 -10 -59 -1 -66 10 -3 5 -37 9 -76 9 -55 0 -68 3 -60 13 9
11 -6 132 -23 188 -7 21 5 25 23 7 9 -9 12 -8 12 4 0 20 -41 32 -53 15 -4 -7
-5 -27 -3 -46 5 -31 4 -32 -8 -15 -7 10 -17 43 -23 71 -13 67 2 93 52 93 25 0
40 -8 59 -31z m-2680 -175 c3 -8 2 -12 -3 -9 -12 7 -42 -35 -35 -47 3 -4 0 -8
-5 -8 -16 0 -14 8 10 46 24 39 25 39 33 18z m2635 -94 c0 -9 -6 -4 -14 10 -8
14 -14 43 -14 65 l0 40 14 -50 c8 -27 14 -57 14 -65z m-2710 21 c8 -13 7 -22
-2 -29 -9 -8 -12 -3 -12 19 0 34 1 35 14 10z m-179 -80 c0 -6 -4 -13 -10 -16
-5 -3 -10 1 -10 9 0 9 5 16 10 16 6 0 10 -4 10 -9z m3019 -272 c17 -17 31 -34
31 -38 0 -4 19 -27 42 -49 23 -23 40 -43 37 -45 -2 -3 -28 -7 -57 -11 -38 -5
-52 -4 -47 4 4 6 -12 40 -35 75 -41 63 -46 95 -16 95 8 0 28 -14 45 -31z
m-2869 -1 c0 -12 -46 -87 -70 -116 -6 -7 -8 -17 -5 -22 8 -13 -1 -13 -26 0
-27 15 -24 32 12 66 17 16 37 41 45 57 15 27 44 37 44 15z m320 -32 c0 -3 -4
-8 -10 -11 -5 -3 -10 -1 -10 4 0 6 5 11 10 11 6 0 10 -2 10 -4z m2127 -178
c-3 -7 -5 -2 -5 12 0 14 2 19 5 13 2 -7 2 -19 0 -25z m-2582 -87 c-6 -5 -25
10 -25 20 0 5 6 4 14 -3 8 -7 12 -15 11 -17z m-98 -7 c-3 -3 -12 -4 -19 -1 -8
3 -5 6 6 6 11 1 17 -2 13 -5z m3348 -44 c26 -6 22 -8 -23 -9 -33 -1 -51 3 -47
9 7 11 26 11 70 0z m-3335 -26 c0 -2 -7 -4 -15 -4 -8 0 -15 4 -15 10 0 5 7 7
15 4 8 -4 15 -8 15 -10z m3407 10 c-3 -3 -12 -4 -19 -1 -8 3 -5 6 6 6 11 1 17
-2 13 -5z m-3627 -44 c-12 -22 -62 -23 -83 -1 -10 11 -4 12 29 6 26 -4 44 -2
49 4 11 19 16 12 5 -9z m120 1 c0 -23 -42 -36 -70 -21 -37 20 -19 35 48 39 15
1 22 -5 22 -18z m3528 -10 l16 -23 -34 7 c-46 10 -50 13 -43 31 8 21 43 13 61
-15z m140 7 c21 -21 13 -25 -39 -23 -31 2 -57 9 -67 19 -15 15 -12 16 39 16
30 0 60 -5 67 -12z m-3498 -30 c0 -6 -7 -7 -16 -4 -9 3 -18 6 -20 6 -3 0 -3 4
1 10 7 11 35 2 35 -12z m3150 3 c0 -6 -4 -13 -10 -16 -5 -3 -10 -2 -10 4 0 5
-8 12 -17 14 -11 3 -7 5 10 6 15 0 27 -3 27 -8z"/>
<path d="M9379 9218 c-7 -15 -6 -58 2 -58 5 0 9 14 9 30 0 25 -6 39 -11 28z"/>
<path d="M9130 9310 c0 -5 5 -10 11 -10 5 0 7 5 4 10 -3 6 -8 10 -11 10 -2 0
-4 -4 -4 -10z"/>
<path d="M8700 9060 c0 -11 5 -20 10 -20 6 0 10 9 10 20 0 11 -4 20 -10 20 -5
0 -10 -9 -10 -20z"/>
<path d="M8636 9014 c-4 -10 -1 -14 6 -12 15 5 23 28 10 28 -5 0 -13 -7 -16
-16z"/>
<path d="M8370 8880 c0 -5 5 -10 10 -10 6 0 10 5 10 10 0 6 -4 10 -10 10 -5 0
-10 -4 -10 -10z"/>
<path d="M8400 8859 c0 -15 18 -19 23 -6 3 8 -1 14 -9 14 -8 0 -14 -4 -14 -8z"/>
<path d="M8282 8836 c7 -8 16 -12 21 -9 11 7 -2 23 -19 23 -12 0 -12 -2 -2
-14z"/>
<path d="M9260 8971 c0 -12 50 -44 57 -37 6 6 -37 45 -49 46 -5 0 -8 -4 -8 -9z"/>
<path d="M9260 8830 c0 -5 5 -10 10 -10 6 0 10 5 10 10 0 6 -4 10 -10 10 -5 0
-10 -4 -10 -10z"/>
<path d="M9085 8750 c-3 -5 3 -10 15 -10 12 0 18 5 15 10 -3 6 -10 10 -15 10
-5 0 -12 -4 -15 -10z"/>
<path d="M8490 8595 c-8 -9 -7 -14 5 -19 8 -3 15 0 16 7 0 7 5 0 10 -15 8 -20
16 -26 31 -23 29 6 33 12 21 38 -13 27 -64 35 -83 12z"/>
<path d="M8230 8450 c0 -5 5 -10 10 -10 6 0 10 5 10 10 0 6 -4 10 -10 10 -5 0
-10 -4 -10 -10z"/>
<path d="M8864 8472 c-6 -9 -8 -26 -4 -37 7 -19 8 -18 21 8 15 32 0 57 -17 29z"/>
<path d="M8815 8270 c-4 -6 -10 -8 -15 -5 -4 3 -10 -8 -12 -23 -4 -26 -1 -29
26 -29 37 0 58 24 45 49 -11 20 -34 24 -44 8z"/>
<path d="M8765 8259 c-4 -6 -5 -12 -2 -15 2 -3 7 2 10 11 7 17 1 20 -8 4z"/>
<path d="M8517 7924 c-11 -11 3 -24 18 -18 8 4 12 10 9 15 -6 11 -18 12 -27 3z"/>
<path d="M8350 7870 c0 -5 7 -10 16 -10 8 0 12 5 9 10 -3 6 -10 10 -16 10 -5
0 -9 -4 -9 -10z"/>
<path d="M8353 7809 c1 -9 6 -15 12 -12 16 5 15 30 -1 30 -7 0 -12 -8 -11 -18z"/>
<path d="M7510 7799 c-12 -9 -11 -10 8 -6 12 3 22 0 22 -5 0 -7 4 -7 13 -1 6
5 31 9 55 8 23 -1 42 2 42 6 0 13 -122 11 -140 -2z"/>
<path d="M7425 7780 c3 -5 8 -10 11 -10 2 0 4 5 4 10 0 6 -5 10 -11 10 -5 0
-7 -4 -4 -10z"/>
<path d="M7370 7510 c-13 -8 -13 -10 2 -10 9 0 20 5 23 10 8 13 -5 13 -25 0z"/>
<path d="M5184 7441 c3 -5 15 -7 26 -4 28 7 25 13 -6 13 -14 0 -23 -4 -20 -9z"/>
<path d="M4925 7319 c-4 -6 -5 -12 -2 -15 2 -3 7 2 10 11 7 17 1 20 -8 4z"/>
<path d="M7510 7032 c0 -26 10 -33 25 -19 9 8 10 16 3 25 -15 18 -28 15 -28
-6z"/>
<path d="M7550 6990 c0 -5 5 -10 10 -10 6 0 10 5 10 10 0 6 -4 10 -10 10 -5 0
-10 -4 -10 -10z"/>
<path d="M3270 6311 c0 -6 4 -13 10 -16 6 -3 7 1 4 9 -7 18 -14 21 -14 7z"/>
<path d="M3313 5895 c0 -8 4 -12 9 -9 5 3 6 10 3 15 -9 13 -12 11 -12 -6z"/>
<path d="M7250 6393 c0 -7 0 -16 1 -19 0 -4 -4 -10 -10 -13 -5 -4 -6 -12 -2
-19 5 -9 11 -6 18 11 7 14 8 29 2 38 -6 10 -9 10 -9 2z"/>
<path d="M7168 6302 c-3 -12 -3 -20 1 -17 5 2 19 -7 31 -20 29 -30 45 -33 30
-4 -9 15 -8 24 1 35 6 8 9 17 5 21 -3 3 -6 2 -6 -4 0 -18 -49 -22 -52 -4 -3
12 -6 10 -10 -7z"/>
<path d="M7258 6202 c-10 -2 -18 -8 -18 -13 0 -13 27 -11 35 2 9 13 4 16 -17
11z"/>
<path d="M7205 6190 c-3 -5 1 -10 10 -10 9 0 13 5 10 10 -3 6 -8 10 -10 10 -2
0 -7 -4 -10 -10z"/>
<path d="M7230 6161 c0 -6 4 -13 10 -16 6 -3 7 1 4 9 -7 18 -14 21 -14 7z"/>
<path d="M4250 5847 c0 -3 7 -20 15 -38 12 -29 14 -31 15 -11 0 13 -7 30 -15
38 -8 9 -15 13 -15 11z"/>
<path d="M4284 5732 c2 -23 6 -46 10 -49 8 -8 6 24 -5 62 -7 26 -7 24 -5 -13z"/>
<path d="M5370 5840 c-12 -8 -11 -10 8 -10 12 0 22 5 22 10 0 13 -11 13 -30 0z"/>
<path d="M6660 1524 c0 -6 7 -19 15 -30 8 -10 14 -14 14 -9 0 6 -6 19 -14 29
-8 11 -15 15 -15 10z"/>
<path d="M6618 1403 c7 -3 16 -2 19 1 4 3 -2 6 -13 5 -11 0 -14 -3 -6 -6z"/>
<path d="M4440 9191 c0 -5 18 -35 39 -67 57 -86 164 -261 243 -399 38 -66 80
-133 92 -150 13 -16 49 -68 80 -114 l56 -84 -26 -45 c-22 -38 -28 -42 -36 -28
-5 9 -13 14 -18 11 -4 -3 -6 10 -4 27 l4 33 -15 -25 -16 -25 6 25 6 25 -20
-24 c-22 -25 -27 -61 -11 -77 6 -6 1 -22 -15 -47 -37 -54 -68 -162 -60 -206 9
-49 68 -174 103 -219 35 -46 48 -67 36 -59 -6 3 -18 -18 -28 -46 l-18 -51 32
-29 c18 -16 38 -26 46 -23 8 3 12 2 9 -4 -3 -5 4 -14 15 -20 17 -9 22 -6 37
24 9 19 20 33 24 30 10 -6 31 31 22 40 -10 10 5 7 40 -8 45 -18 119 -28 202
-27 76 1 126 14 167 42 14 11 35 19 46 19 12 0 23 4 26 9 3 5 21 12 40 15 19
4 36 12 38 18 2 6 10 -9 18 -33 7 -24 17 -48 22 -53 12 -14 22 1 11 16 -5 7
-15 33 -22 57 -12 42 -11 45 12 69 l25 25 64 -50 c68 -54 88 -67 88 -59 0 10
-139 116 -151 116 -9 0 -7 4 3 13 9 6 21 30 28 52 7 22 16 45 20 50 5 6 15 32
23 60 13 48 13 53 -15 130 -16 44 -38 92 -48 107 -11 15 -20 31 -20 35 0 4
-12 9 -26 10 -41 2 -69 21 -82 55 -6 18 -14 29 -18 26 -3 -4 -1 -15 5 -26 6
-12 11 -33 11 -47 0 -24 -1 -25 -16 -11 -14 15 -17 14 -35 -8 -10 -13 -23 -35
-29 -50 -5 -14 -15 -26 -22 -26 -9 0 -8 3 2 10 9 6 10 10 3 10 -7 0 -17 -9
-23 -20 -11 -21 -40 -28 -40 -9 0 5 -4 8 -9 5 -4 -3 -17 1 -27 9 -24 18 -35
19 -28 1 7 -17 -33 -33 -48 -18 -5 5 -10 19 -11 31 -1 16 -8 21 -29 21 -15 0
-28 -4 -28 -10 0 -5 -15 -10 -32 -9 l-33 1 30 13 c17 8 57 14 89 15 33 0 57 2
55 4 -10 10 -82 13 -124 5 -46 -9 -48 -8 -86 32 -44 46 -44 46 -24 73 19 25
19 37 1 30 -9 -3 -15 5 -19 25 -4 17 -11 31 -16 31 -5 0 -7 -9 -4 -20 3 -11 2
-20 -1 -20 -10 0 -70 71 -78 92 -5 12 -13 16 -20 12 -7 -4 -10 -4 -6 1 9 9
-50 93 -75 106 -9 6 -15 14 -12 18 2 5 -4 19 -14 32 -34 44 -142 203 -253 372
-99 150 -128 186 -128 158z m410 -891 c0 -5 -7 -7 -15 -4 -8 4 -15 8 -15 10 0
2 7 4 15 4 8 0 15 -4 15 -10z m368 -92 c-3 -7 -12 -14 -22 -14 -13 -2 -13 -1
-1 3 8 2 13 9 10 14 -4 5 -1 9 5 9 7 0 10 -6 8 -12z m297 -45 c-7 -51 -23 -88
-32 -79 -6 5 29 126 36 126 2 0 0 -21 -4 -47z m-461 -4 c29 -35 34 -64 10 -73
-32 -12 -74 29 -74 73 0 17 11 28 32 30 3 1 18 -13 32 -30z m416 -8 c0 -35
-18 -57 -52 -65 -22 -5 -28 -3 -29 11 -3 35 2 48 27 70 30 27 54 20 54 -16z
m-534 -258 c-6 -6 -46 62 -46 78 0 8 12 -6 25 -30 14 -24 24 -46 21 -48z m620
48 c-25 -48 -45 -55 -22 -7 12 24 24 41 28 39 5 -2 1 -17 -6 -32z m-612 -96
c-4 -8 -12 -15 -20 -15 -17 0 -18 17 -1 23 22 9 27 7 21 -8z m602 2 c8 3 14 0
14 -7 0 -15 -33 -9 -36 8 -1 7 0 8 2 3 3 -6 12 -7 20 -4z m78 -18 c-10 -12
-17 -24 -16 -28 5 -9 -60 -71 -74 -71 -6 0 -17 -7 -24 -15 -7 -8 -20 -15 -29
-15 -22 1 27 39 50 40 15 0 49 30 46 40 -3 9 56 81 61 75 3 -3 -3 -14 -14 -26z
m-715 -63 c-3 -3 -11 5 -18 17 -13 21 -12 21 5 5 10 -10 16 -20 13 -22z m54
-73 c-1 -6 7 -10 19 -9 12 0 23 -4 25 -10 2 -7 -6 -10 -22 -9 -14 2 -23 -1
-19 -6 3 -5 10 -7 15 -4 5 4 9 0 9 -7 -1 -16 -29 -67 -29 -53 -1 6 3 17 8 25
7 10 4 18 -9 27 -10 7 -25 26 -33 42 -14 28 -14 28 12 21 14 -4 25 -12 24 -17z
m42 17 c3 -6 -1 -7 -9 -4 -18 7 -21 14 -7 14 6 0 13 -4 16 -10z m298 -67 c-23
-2 -64 -2 -90 0 -26 2 -7 3 42 3 50 0 71 -1 48 -3z"/>
<path d="M5925 9121 c-22 -35 -89 -136 -148 -225 -60 -88 -121 -180 -135 -204
-15 -24 -55 -82 -89 -129 -35 -47 -63 -89 -63 -94 0 -16 -25 -10 -88 22 -109
54 -270 50 -360 -8 -54 -36 -46 -41 14 -10 27 14 79 31 117 38 59 11 76 11
140 -5 39 -9 92 -28 116 -43 40 -23 42 -27 25 -36 -10 -6 -23 -15 -27 -21 -6
-7 -7 -4 -3 7 3 9 3 17 -1 17 -12 0 -32 -35 -33 -56 0 -29 35 -72 63 -76 17
-2 26 5 40 36 9 21 17 42 17 46 0 4 34 61 76 127 41 65 111 181 155 258 44 77
114 196 155 264 41 68 73 131 71 140 -2 10 -18 -9 -42 -48z"/>
<path d="M2910 8726 c0 -2 7 -7 16 -10 8 -3 12 -2 9 4 -6 10 -25 14 -25 6z"/>
<path d="M5622 8320 c9 -26 13 -30 16 -16 2 10 -3 26 -12 35 -15 15 -16 13 -4
-19z"/>
<path d="M6719 8273 c-13 -16 -12 -17 4 -4 9 7 17 15 17 17 0 8 -8 3 -21 -13z"/>
<path d="M4718 8168 c-11 -31 -20 -43 -34 -43 -10 0 -19 -5 -19 -12 0 -6 -4
-15 -9 -20 -5 -5 -6 -2 -1 6 5 9 4 12 -4 10 -7 -3 -13 -9 -13 -14 0 -6 -9 -16
-18 -22 -11 -8 -16 -20 -13 -33 3 -11 -2 -35 -11 -54 -18 -39 -20 -56 -6 -56
5 0 7 8 4 18 -5 15 -4 15 6 2 10 -13 11 -13 7 1 -7 22 8 46 16 25 7 -18 -31
-69 -45 -60 -6 4 -8 -1 -4 -13 8 -26 -28 -63 -37 -38 -4 8 -3 22 0 32 4 11 3
14 -5 9 -19 -11 -14 -81 7 -108 11 -13 22 -41 26 -61 4 -20 11 -35 15 -32 4 3
10 -4 13 -16 4 -17 3 -18 -9 -8 -12 10 -14 6 -12 -23 2 -24 7 -34 16 -31 6 3
12 0 12 -6 0 -6 -5 -11 -12 -11 -20 0 4 -16 41 -29 28 -9 39 -8 58 4 12 9 23
22 23 30 0 19 -5 19 -35 -1 -19 -13 -27 -13 -44 -2 -12 7 -21 18 -21 24 0 13
75 84 89 84 5 0 32 18 59 39 27 22 53 37 58 33 4 -4 -6 11 -23 33 -39 51 -62
97 -84 165 -10 30 -18 47 -18 38 -1 -9 -10 -24 -22 -32 -14 -9 -18 -19 -13
-28 4 -7 -2 -4 -14 6 -12 11 -22 22 -22 25 0 3 19 26 42 51 36 39 87 145 75
157 -3 2 -11 -15 -19 -39z m-68 -102 c0 -2 -7 -6 -15 -10 -8 -3 -15 -1 -15 4
0 6 7 10 15 10 8 0 15 -2 15 -4z m128 -261 c-2 -6 -9 -9 -15 -9 -7 1 -11 -1
-8 -5 8 -14 -132 -117 -143 -106 -4 4 1 11 11 16 9 6 17 17 17 24 0 8 5 15 11
15 5 0 7 5 4 10 -3 6 3 10 13 10 22 0 46 23 35 34 -4 4 0 4 10 0 9 -3 17 -1
17 4 0 6 8 13 18 15 23 6 34 3 30 -8z"/>
<path d="M5753 8125 c6 -21 13 -31 17 -24 5 7 17 -2 34 -23 14 -19 26 -38 26
-41 0 -4 9 -21 21 -39 12 -18 18 -24 14 -13 -5 11 -9 30 -10 42 -1 18 -96 133
-110 133 -2 0 2 -16 8 -35z"/>
<path d="M5761 7963 c-8 -21 -22 -55 -32 -77 l-18 -39 27 -21 c15 -11 46 -38
68 -58 23 -21 45 -38 50 -38 5 0 4 4 -1 8 -6 4 -35 33 -64 64 l-54 58 17 55
18 55 48 -58 c26 -31 49 -66 51 -76 5 -23 69 -34 69 -12 0 8 -6 16 -14 18 -16
3 -136 136 -136 149 0 22 -17 5 -29 -28z"/>
<path d="M4215 7910 c-3 -5 3 -10 14 -10 12 0 21 5 21 10 0 6 -6 10 -14 10 -8
0 -18 -4 -21 -10z"/>
<path d="M6200 7910 c0 -5 11 -10 25 -10 14 0 25 5 25 10 0 6 -11 10 -25 10
-14 0 -25 -4 -25 -10z"/>
<path d="M4003 7803 c9 -2 25 -2 35 0 9 3 1 5 -18 5 -19 0 -27 -2 -17 -5z"/>
<path d="M3958 7793 c7 -3 16 -2 19 1 4 3 -2 6 -13 5 -11 0 -14 -3 -6 -6z"/>
<path d="M5892 7787 c-7 -8 -9 -17 -5 -20 3 -4 0 -7 -7 -7 -9 0 -11 -12 -7
-45 6 -39 4 -45 -11 -45 -10 0 -24 6 -32 13 -8 6 -3 -2 13 -19 48 -53 24 -95
-35 -61 -37 21 -55 22 -38 2 7 -8 27 -17 46 -21 43 -8 74 16 74 58 0 16 5 28
13 28 8 0 7 3 -3 10 -12 7 -12 18 -3 62 12 59 11 65 -5 45z"/>
<path d="M4072 7755 c0 -16 2 -22 5 -12 2 9 2 23 0 30 -3 6 -5 -1 -5 -18z"/>
<path d="M6505 7749 c-4 -6 -5 -12 -2 -15 2 -3 7 2 10 11 7 17 1 20 -8 4z"/>
<path d="M3966 7737 c3 -10 9 -15 12 -12 3 3 0 11 -7 18 -10 9 -11 8 -5 -6z"/>
<path d="M6680 7728 c0 -2 21 -21 48 -43 26 -21 38 -28 27 -16 -19 23 -75 66
-75 59z"/>
<path d="M5030 7630 c0 -11 4 -20 9 -20 13 0 32 26 24 33 -13 14 -33 6 -33
-13z"/>
<path d="M5460 7636 c0 -2 8 -10 18 -17 15 -13 16 -12 3 4 -13 16 -21 21 -21
13z"/>
<path d="M5415 7620 c-3 -5 1 -10 9 -10 9 0 16 5 16 10 0 6 -4 10 -9 10 -6 0
-13 -4 -16 -10z"/>
<path d="M5210 7598 c0 -15 5 -30 10 -33 18 -11 50 6 50 25 0 28 -17 33 -24 7
l-6 -22 -15 25 -14 25 -1 -27z"/>
<path d="M5567 7600 c-14 -11 -30 -20 -37 -20 -6 0 -8 -5 -5 -11 5 -7 15 -4
29 9 11 11 30 24 41 30 11 6 15 12 9 12 -6 0 -23 -9 -37 -20z"/>
<path d="M6840 7523 c1 -21 19 -35 39 -28 32 10 26 35 -9 35 -16 0 -30 -3 -30
-7z"/>
<path d="M4570 7441 c0 -11 26 -22 34 -14 12 12 5 23 -14 23 -11 0 -20 -4 -20
-9z"/>
<path d="M5871 7431 c-12 -12 -29 -21 -38 -22 -10 0 -13 -3 -7 -5 6 -2 28 0
50 5 21 5 30 10 19 10 -16 1 -17 3 -5 11 8 5 12 12 8 15 -3 4 -16 -3 -27 -14z"/>
<path d="M4610 7423 c1 -9 70 -45 70 -36 0 3 -10 14 -22 24 -21 19 -48 25 -48
12z"/>
<path d="M6191 5784 c0 -11 3 -14 6 -6 3 7 2 16 -1 19 -3 4 -6 -2 -5 -13z"/>
<path d="M6526 5471 c-3 -4 3 -16 13 -25 22 -20 40 -4 21 19 -14 17 -26 19
-34 6z"/>
<path d="M7571 4794 c0 -11 3 -14 6 -6 3 7 2 16 -1 19 -3 4 -6 -2 -5 -13z"/>
<path d="M7592 4695 c0 -16 2 -22 5 -12 2 9 2 23 0 30 -3 6 -5 -1 -5 -18z"/>
<path d="M3860 3151 c0 -6 4 -13 10 -16 6 -3 7 1 4 9 -7 18 -14 21 -14 7z"/>
<path d="M6551 1964 c0 -11 3 -14 6 -6 3 7 2 16 -1 19 -3 4 -6 -2 -5 -13z"/>
<path d="M6690 1581 c0 -6 4 -13 10 -16 6 -3 7 1 4 9 -7 18 -14 21 -14 7z"/>
</g>
</svg>
